<svg xmlns="http://www.w3.org/2000/svg" width="1073" height="279" viewBox="0 0 1073 279" role="img" aria-labelledby="title desc">
  <title id="title">daaat logo</title>
  <desc id="desc">Transparent vector wordmark traced from the supplied image.</desc>
  <path fill="#2D2D2D" fill-rule="evenodd" d="M 173.0 1.5 L 174.0 1.5 L 175.0 1.5 L 176.0 1.5 L 177.0 1.5 L 178.0 1.5 L 179.0 1.5 L 180.0 1.5 L 181.0 1.5 L 182.0 1.5 L 183.0 1.5 L 183.5 2.0 L 184.0 2.5 L 185.0 2.5 L 185.5 3.0 L 186.0 3.5 L 187.0 3.5 L 187.5 4.0 L 188.0 4.5 L 189.0 4.5 L 189.5 5.0 L 190.0 5.5 L 190.5 6.0 L 191.0 6.5 L 191.5 7.0 L 192.0 7.5 L 192.5 8.0 L 193.0 8.5 L 193.5 9.0 L 193.5 10.0 L 194.0 10.5 L 194.5 11.0 L 194.5 12.0 L 195.0 12.5 L 195.5 13.0 L 195.5 14.0 L 195.5 15.0 L 196.0 15.5 L 196.5 16.0 L 196.5 17.0 L 196.5 18.0 L 196.5 19.0 L 196.5 20.0 L 196.5 21.0 L 196.5 22.0 L 196.5 23.0 L 196.5 24.0 L 196.5 25.0 L 196.5 26.0 L 196.5 27.0 L 196.5 28.0 L 196.5 29.0 L 196.5 30.0 L 196.5 31.0 L 196.5 32.0 L 196.5 33.0 L 196.5 34.0 L 196.5 35.0 L 196.5 36.0 L 196.5 37.0 L 196.5 38.0 L 196.5 39.0 L 196.5 40.0 L 196.5 41.0 L 196.5 42.0 L 196.5 43.0 L 196.5 44.0 L 196.5 45.0 L 196.5 46.0 L 196.5 47.0 L 196.5 48.0 L 196.5 49.0 L 196.5 50.0 L 196.5 51.0 L 196.5 52.0 L 196.5 53.0 L 196.5 54.0 L 196.5 55.0 L 196.5 56.0 L 196.5 57.0 L 196.5 58.0 L 196.5 59.0 L 196.5 60.0 L 196.5 61.0 L 196.5 62.0 L 196.5 63.0 L 196.5 64.0 L 196.5 65.0 L 196.5 66.0 L 196.5 67.0 L 196.5 68.0 L 196.5 69.0 L 196.5 70.0 L 196.5 71.0 L 196.5 72.0 L 196.5 73.0 L 196.5 74.0 L 196.5 75.0 L 196.5 76.0 L 196.5 77.0 L 196.5 78.0 L 196.5 79.0 L 196.5 80.0 L 196.5 81.0 L 196.5 82.0 L 196.5 83.0 L 196.5 84.0 L 196.5 85.0 L 196.5 86.0 L 196.5 87.0 L 196.5 88.0 L 196.5 89.0 L 196.5 90.0 L 196.5 91.0 L 196.5 92.0 L 196.5 93.0 L 196.5 94.0 L 196.5 95.0 L 196.5 96.0 L 196.5 97.0 L 196.5 98.0 L 196.5 99.0 L 196.5 100.0 L 196.5 101.0 L 196.5 102.0 L 196.5 103.0 L 196.5 104.0 L 196.5 105.0 L 196.5 106.0 L 196.5 107.0 L 196.5 108.0 L 196.5 109.0 L 196.5 110.0 L 196.5 111.0 L 196.5 112.0 L 196.5 113.0 L 196.5 114.0 L 196.5 115.0 L 196.5 116.0 L 196.5 117.0 L 196.5 118.0 L 196.5 119.0 L 196.5 120.0 L 196.5 121.0 L 196.5 122.0 L 196.5 123.0 L 196.5 124.0 L 196.5 125.0 L 196.5 126.0 L 196.5 127.0 L 196.5 128.0 L 196.5 129.0 L 196.5 130.0 L 196.5 131.0 L 196.5 132.0 L 196.5 133.0 L 196.5 134.0 L 196.5 135.0 L 196.5 136.0 L 196.5 137.0 L 196.5 138.0 L 196.5 139.0 L 196.5 140.0 L 196.5 141.0 L 196.5 142.0 L 196.5 143.0 L 196.5 144.0 L 196.5 145.0 L 196.5 146.0 L 196.5 147.0 L 196.5 148.0 L 196.5 149.0 L 196.5 150.0 L 196.5 151.0 L 196.5 152.0 L 196.5 153.0 L 196.5 154.0 L 196.5 155.0 L 196.5 156.0 L 196.5 157.0 L 196.5 158.0 L 196.5 159.0 L 196.5 160.0 L 196.5 161.0 L 196.5 162.0 L 196.5 163.0 L 196.5 164.0 L 196.5 165.0 L 196.5 166.0 L 196.5 167.0 L 196.5 168.0 L 196.5 169.0 L 196.5 170.0 L 196.5 171.0 L 196.5 172.0 L 196.5 173.0 L 196.5 174.0 L 196.5 175.0 L 196.5 176.0 L 196.5 177.0 L 196.5 178.0 L 196.5 179.0 L 196.5 180.0 L 196.5 181.0 L 196.5 182.0 L 196.5 183.0 L 196.5 184.0 L 196.5 185.0 L 196.5 186.0 L 196.5 187.0 L 196.5 188.0 L 196.5 189.0 L 196.5 190.0 L 196.0 190.5 L 195.5 191.0 L 195.5 192.0 L 195.5 193.0 L 195.5 194.0 L 195.5 195.0 L 195.5 196.0 L 195.5 197.0 L 195.0 197.5 L 194.5 198.0 L 194.5 199.0 L 194.5 200.0 L 194.5 201.0 L 194.5 202.0 L 194.0 202.5 L 193.5 203.0 L 193.5 204.0 L 193.5 205.0 L 193.0 205.5 L 192.5 206.0 L 192.5 207.0 L 192.5 208.0 L 192.5 209.0 L 192.0 209.5 L 191.5 210.0 L 191.5 211.0 L 191.0 211.5 L 190.5 212.0 L 190.5 213.0 L 190.5 214.0 L 190.0 214.5 L 189.5 215.0 L 189.5 216.0 L 189.0 216.5 L 188.5 217.0 L 188.5 218.0 L 188.5 219.0 L 188.0 219.5 L 187.5 220.0 L 187.5 221.0 L 187.0 221.5 L 186.5 222.0 L 186.5 223.0 L 186.0 223.5 L 185.5 224.0 L 185.5 225.0 L 185.0 225.5 L 184.5 226.0 L 184.5 227.0 L 184.0 227.5 L 183.5 228.0 L 183.0 228.5 L 182.5 229.0 L 182.5 230.0 L 182.0 230.5 L 181.5 231.0 L 181.0 231.5 L 180.5 232.0 L 180.5 233.0 L 180.0 233.5 L 179.5 234.0 L 179.0 234.5 L 178.5 235.0 L 178.5 236.0 L 178.0 236.5 L 177.5 237.0 L 177.0 237.5 L 176.5 238.0 L 176.0 238.5 L 175.5 239.0 L 175.5 240.0 L 175.0 240.5 L 174.5 241.0 L 174.0 241.5 L 173.5 242.0 L 173.0 242.5 L 172.5 243.0 L 172.0 243.5 L 171.5 244.0 L 171.0 244.5 L 170.5 245.0 L 170.0 245.5 L 169.5 246.0 L 169.0 246.5 L 168.5 247.0 L 168.0 247.5 L 167.5 248.0 L 167.5 249.0 L 167.0 249.5 L 166.0 249.5 L 165.5 250.0 L 165.0 250.5 L 164.5 251.0 L 164.0 251.5 L 163.5 252.0 L 163.0 252.5 L 162.5 253.0 L 162.0 253.5 L 161.5 254.0 L 161.0 254.5 L 160.5 255.0 L 160.0 255.5 L 159.5 256.0 L 159.0 256.5 L 158.0 256.5 L 157.5 257.0 L 157.0 257.5 L 156.5 258.0 L 156.0 258.5 L 155.5 259.0 L 155.0 259.5 L 154.0 259.5 L 153.5 260.0 L 153.0 260.5 L 152.5 261.0 L 152.0 261.5 L 151.0 261.5 L 150.5 262.0 L 150.0 262.5 L 149.0 262.5 L 148.5 263.0 L 148.0 263.5 L 147.5 264.0 L 147.0 264.5 L 146.0 264.5 L 145.5 265.0 L 145.0 265.5 L 144.0 265.5 L 143.5 266.0 L 143.0 266.5 L 142.0 266.5 L 141.5 267.0 L 141.0 267.5 L 140.0 267.5 L 139.5 268.0 L 139.0 268.5 L 138.0 268.5 L 137.0 268.5 L 136.5 269.0 L 136.0 269.5 L 135.0 269.5 L 134.5 270.0 L 134.0 270.5 L 133.0 270.5 L 132.0 270.5 L 131.5 271.0 L 131.0 271.5 L 130.0 271.5 L 129.0 271.5 L 128.5 272.0 L 128.0 272.5 L 127.0 272.5 L 126.0 272.5 L 125.5 273.0 L 125.0 273.5 L 124.0 273.5 L 123.0 273.5 L 122.0 273.5 L 121.5 274.0 L 121.0 274.5 L 120.0 274.5 L 119.0 274.5 L 118.0 274.5 L 117.0 274.5 L 116.0 274.5 L 115.5 275.0 L 115.0 275.5 L 114.0 275.5 L 113.0 275.5 L 112.0 275.5 L 111.0 275.5 L 110.0 275.5 L 109.0 275.5 L 108.0 275.5 L 107.0 275.5 L 106.5 276.0 L 106.0 276.5 L 105.0 276.5 L 104.0 276.5 L 103.0 276.5 L 102.0 276.5 L 101.0 276.5 L 100.0 276.5 L 99.0 276.5 L 98.0 276.5 L 97.0 276.5 L 96.0 276.5 L 95.0 276.5 L 94.0 276.5 L 93.0 276.5 L 92.0 276.5 L 91.5 276.0 L 91.0 275.5 L 90.0 275.5 L 89.0 275.5 L 88.0 275.5 L 87.0 275.5 L 86.0 275.5 L 85.0 275.5 L 84.0 275.5 L 83.5 275.0 L 83.0 274.5 L 82.0 274.5 L 81.0 274.5 L 80.0 274.5 L 79.0 274.5 L 78.5 274.0 L 78.0 273.5 L 77.0 273.5 L 76.0 273.5 L 75.0 273.5 L 74.0 273.5 L 73.5 273.0 L 73.0 272.5 L 72.0 272.5 L 71.0 272.5 L 70.5 272.0 L 70.0 271.5 L 69.0 271.5 L 68.0 271.5 L 67.5 271.0 L 67.0 270.5 L 66.0 270.5 L 65.0 270.5 L 64.5 270.0 L 64.0 269.5 L 63.0 269.5 L 62.5 269.0 L 62.0 268.5 L 61.0 268.5 L 60.0 268.5 L 59.5 268.0 L 59.0 267.5 L 58.0 267.5 L 57.5 267.0 L 57.0 266.5 L 56.0 266.5 L 55.5 266.0 L 55.0 265.5 L 54.0 265.5 L 53.5 265.0 L 53.0 264.5 L 52.0 264.5 L 51.5 264.0 L 51.0 263.5 L 50.0 263.5 L 49.5 263.0 L 49.0 262.5 L 48.5 262.0 L 48.0 261.5 L 47.0 261.5 L 46.5 261.0 L 46.0 260.5 L 45.0 260.5 L 44.5 260.0 L 44.0 259.5 L 43.5 259.0 L 43.0 258.5 L 42.0 258.5 L 41.5 258.0 L 41.0 257.5 L 40.5 257.0 L 40.0 256.5 L 39.0 256.5 L 38.5 256.0 L 38.0 255.5 L 37.5 255.0 L 37.0 254.5 L 36.5 254.0 L 36.0 253.5 L 35.5 253.0 L 35.0 252.5 L 34.5 252.0 L 34.0 251.5 L 33.0 251.5 L 32.5 251.0 L 32.0 250.5 L 31.5 250.0 L 31.0 249.5 L 30.5 249.0 L 30.0 248.5 L 29.5 248.0 L 29.0 247.5 L 28.5 247.0 L 28.0 246.5 L 27.5 246.0 L 27.0 245.5 L 26.5 245.0 L 26.0 244.5 L 25.5 244.0 L 25.5 243.0 L 25.0 242.5 L 24.5 242.0 L 24.0 241.5 L 23.5 241.0 L 23.0 240.5 L 22.5 240.0 L 22.0 239.5 L 21.5 239.0 L 21.0 238.5 L 20.5 238.0 L 20.5 237.0 L 20.0 236.5 L 19.5 236.0 L 19.0 235.5 L 18.5 235.0 L 18.5 234.0 L 18.0 233.5 L 17.5 233.0 L 17.0 232.5 L 16.5 232.0 L 16.0 231.5 L 15.5 231.0 L 15.5 230.0 L 15.0 229.5 L 14.5 229.0 L 14.5 228.0 L 14.0 227.5 L 13.5 227.0 L 13.5 226.0 L 13.0 225.5 L 12.5 225.0 L 12.0 224.5 L 11.5 224.0 L 11.5 223.0 L 11.5 222.0 L 11.0 221.5 L 10.5 221.0 L 10.5 220.0 L 10.0 219.5 L 9.5 219.0 L 9.5 218.0 L 9.0 217.5 L 8.5 217.0 L 8.5 216.0 L 8.0 215.5 L 7.5 215.0 L 7.5 214.0 L 7.5 213.0 L 7.0 212.5 L 6.5 212.0 L 6.5 211.0 L 6.5 210.0 L 6.0 209.5 L 5.5 209.0 L 5.5 208.0 L 5.5 207.0 L 5.0 206.5 L 4.5 206.0 L 4.5 205.0 L 4.5 204.0 L 4.0 203.5 L 3.5 203.0 L 3.5 202.0 L 3.5 201.0 L 3.5 200.0 L 3.5 199.0 L 3.0 198.5 L 2.5 198.0 L 2.5 197.0 L 2.5 196.0 L 2.5 195.0 L 2.5 194.0 L 2.5 193.0 L 2.0 192.5 L 1.5 192.0 L 1.5 191.0 L 1.5 190.0 L 1.5 189.0 L 1.5 188.0 L 1.5 187.0 L 1.5 186.0 L 1.5 185.0 L 1.5 184.0 L 1.5 183.0 L 1.5 182.0 L 1.5 181.0 L 1.5 180.0 L 1.5 179.0 L 1.5 178.0 L 1.5 177.0 L 1.5 176.0 L 1.5 175.0 L 1.5 174.0 L 1.5 173.0 L 1.5 172.0 L 1.5 171.0 L 1.5 170.0 L 1.5 169.0 L 1.5 168.0 L 2.0 167.5 L 2.5 167.0 L 2.5 166.0 L 2.5 165.0 L 2.5 164.0 L 2.5 163.0 L 2.5 162.0 L 3.0 161.5 L 3.5 161.0 L 3.5 160.0 L 3.5 159.0 L 3.5 158.0 L 3.5 157.0 L 4.0 156.5 L 4.5 156.0 L 4.5 155.0 L 4.5 154.0 L 4.5 153.0 L 5.0 152.5 L 5.5 152.0 L 5.5 151.0 L 5.5 150.0 L 6.0 149.5 L 6.5 149.0 L 6.5 148.0 L 6.5 147.0 L 7.0 146.5 L 7.5 146.0 L 7.5 145.0 L 8.0 144.5 L 8.5 144.0 L 8.5 143.0 L 8.5 142.0 L 9.0 141.5 L 9.5 141.0 L 9.5 140.0 L 10.0 139.5 L 10.5 139.0 L 10.5 138.0 L 11.0 137.5 L 11.5 137.0 L 11.5 136.0 L 11.5 135.0 L 12.0 134.5 L 12.5 134.0 L 12.5 133.0 L 13.0 132.5 L 13.5 132.0 L 14.0 131.5 L 14.5 131.0 L 14.5 130.0 L 15.0 129.5 L 15.5 129.0 L 15.5 128.0 L 16.0 127.5 L 16.5 127.0 L 17.0 126.5 L 17.5 126.0 L 17.5 125.0 L 18.0 124.5 L 18.5 124.0 L 19.0 123.5 L 19.5 123.0 L 19.5 122.0 L 20.0 121.5 L 20.5 121.0 L 21.0 120.5 L 21.5 120.0 L 21.5 119.0 L 22.0 118.5 L 22.5 118.0 L 23.0 117.5 L 23.5 117.0 L 24.0 116.5 L 24.5 116.0 L 25.0 115.5 L 25.5 115.0 L 26.0 114.5 L 26.5 114.0 L 26.5 113.0 L 27.0 112.5 L 27.5 112.0 L 28.0 111.5 L 28.5 111.0 L 29.0 110.5 L 29.5 110.0 L 30.0 109.5 L 30.5 109.0 L 31.0 108.5 L 31.5 108.0 L 32.0 107.5 L 32.5 107.0 L 33.0 106.5 L 33.5 106.0 L 34.0 105.5 L 35.0 105.5 L 35.5 105.0 L 36.0 104.5 L 36.5 104.0 L 37.0 103.5 L 37.5 103.0 L 38.0 102.5 L 38.5 102.0 L 39.0 101.5 L 39.5 101.0 L 40.0 100.5 L 41.0 100.5 L 41.5 100.0 L 42.0 99.5 L 42.5 99.0 L 43.0 98.5 L 44.0 98.5 L 44.5 98.0 L 45.0 97.5 L 45.5 97.0 L 46.0 96.5 L 47.0 96.5 L 47.5 96.0 L 48.0 95.5 L 48.5 95.0 L 49.0 94.5 L 50.0 94.5 L 50.5 94.0 L 51.0 93.5 L 52.0 93.5 L 52.5 93.0 L 53.0 92.5 L 53.5 92.0 L 54.0 91.5 L 55.0 91.5 L 55.5 91.0 L 56.0 90.5 L 57.0 90.5 L 57.5 90.0 L 58.0 89.5 L 59.0 89.5 L 60.0 89.5 L 60.5 89.0 L 61.0 88.5 L 62.0 88.5 L 62.5 88.0 L 63.0 87.5 L 64.0 87.5 L 65.0 87.5 L 65.5 87.0 L 66.0 86.5 L 67.0 86.5 L 67.5 86.0 L 68.0 85.5 L 69.0 85.5 L 70.0 85.5 L 70.5 85.0 L 71.0 84.5 L 72.0 84.5 L 73.0 84.5 L 74.0 84.5 L 74.5 84.0 L 75.0 83.5 L 76.0 83.5 L 77.0 83.5 L 78.0 83.5 L 78.5 83.0 L 79.0 82.5 L 80.0 82.5 L 81.0 82.5 L 82.0 82.5 L 83.0 82.5 L 83.5 82.0 L 84.0 81.5 L 85.0 81.5 L 86.0 81.5 L 87.0 81.5 L 88.0 81.5 L 89.0 81.5 L 90.0 81.5 L 91.0 81.5 L 91.5 81.0 L 92.0 80.5 L 93.0 80.5 L 94.0 80.5 L 95.0 80.5 L 96.0 80.5 L 97.0 80.5 L 98.0 80.5 L 99.0 80.5 L 100.0 80.5 L 101.0 80.5 L 102.0 80.5 L 103.0 80.5 L 104.0 80.5 L 105.0 80.5 L 106.0 80.5 L 107.0 80.5 L 108.0 80.5 L 108.5 81.0 L 109.0 81.5 L 110.0 81.5 L 111.0 81.5 L 112.0 81.5 L 113.0 81.5 L 114.0 81.5 L 115.0 81.5 L 116.0 81.5 L 116.5 82.0 L 117.0 82.5 L 118.0 82.5 L 119.0 82.5 L 120.0 82.5 L 121.0 82.5 L 121.5 83.0 L 122.0 83.5 L 123.0 83.5 L 124.0 83.5 L 125.0 83.5 L 125.5 84.0 L 126.0 84.5 L 127.0 84.5 L 128.0 84.5 L 129.0 84.5 L 129.5 85.0 L 130.0 85.5 L 131.0 85.5 L 132.0 85.5 L 132.5 86.0 L 133.0 86.5 L 134.0 86.5 L 134.5 87.0 L 135.0 87.5 L 136.0 87.5 L 137.0 87.5 L 137.5 88.0 L 138.0 88.5 L 139.0 88.5 L 139.5 89.0 L 140.0 89.5 L 141.0 89.5 L 141.5 90.0 L 142.0 90.5 L 143.0 90.5 L 143.5 91.0 L 144.0 91.5 L 145.0 91.5 L 145.5 92.0 L 146.0 92.5 L 146.5 93.0 L 147.0 93.5 L 148.0 93.5 L 148.5 94.0 L 149.0 94.5 L 150.0 94.5 L 150.5 95.0 L 151.0 95.5 L 151.5 96.0 L 152.0 96.5 L 152.5 97.0 L 153.0 97.5 L 154.0 97.5 L 154.5 98.0 L 155.0 98.5 L 155.5 99.0 L 156.0 99.5 L 156.5 100.0 L 157.0 100.5 L 157.5 101.0 L 158.0 101.5 L 158.5 101.0 L 159.0 100.5 L 159.5 100.0 L 159.0 99.5 L 158.5 99.0 L 159.0 98.5 L 159.5 98.0 L 159.5 97.0 L 159.5 96.0 L 159.5 95.0 L 159.5 94.0 L 159.5 93.0 L 159.5 92.0 L 159.5 91.0 L 159.5 90.0 L 159.5 89.0 L 159.5 88.0 L 159.5 87.0 L 159.5 86.0 L 159.0 85.5 L 158.5 85.0 L 158.5 84.0 L 158.5 83.0 L 158.5 82.0 L 158.5 81.0 L 158.5 80.0 L 158.5 79.0 L 158.5 78.0 L 158.5 77.0 L 158.5 76.0 L 158.5 75.0 L 158.5 74.0 L 158.5 73.0 L 158.5 72.0 L 158.5 71.0 L 158.5 70.0 L 158.5 69.0 L 158.5 68.0 L 158.5 67.0 L 158.5 66.0 L 158.5 65.0 L 158.5 64.0 L 158.5 63.0 L 158.5 62.0 L 158.5 61.0 L 158.5 60.0 L 158.5 59.0 L 158.5 58.0 L 158.5 57.0 L 158.5 56.0 L 158.5 55.0 L 158.5 54.0 L 158.5 53.0 L 158.5 52.0 L 158.5 51.0 L 158.5 50.0 L 158.5 49.0 L 158.5 48.0 L 158.5 47.0 L 158.5 46.0 L 158.5 45.0 L 158.5 44.0 L 158.5 43.0 L 158.5 42.0 L 158.5 41.0 L 158.5 40.0 L 158.5 39.0 L 158.5 38.0 L 158.5 37.0 L 158.5 36.0 L 158.5 35.0 L 158.5 34.0 L 158.5 33.0 L 158.5 32.0 L 158.5 31.0 L 158.5 30.0 L 158.5 29.0 L 159.0 28.5 L 159.5 28.0 L 159.5 27.0 L 159.5 26.0 L 159.5 25.0 L 159.5 24.0 L 159.5 23.0 L 159.0 22.5 L 158.5 22.0 L 158.5 21.0 L 158.5 20.0 L 158.5 19.0 L 159.0 18.5 L 159.5 18.0 L 159.5 17.0 L 159.5 16.0 L 159.5 15.0 L 159.5 14.0 L 160.0 13.5 L 160.5 13.0 L 160.5 12.0 L 161.0 11.5 L 161.5 11.0 L 162.0 10.5 L 162.5 10.0 L 162.5 9.0 L 163.0 8.5 L 163.5 8.0 L 164.0 7.5 L 164.5 7.0 L 165.0 6.5 L 165.5 6.0 L 166.0 5.5 L 166.5 5.0 L 167.0 4.5 L 168.0 4.5 L 168.5 4.0 L 169.0 3.5 L 170.0 3.5 L 170.5 3.0 L 171.0 2.5 L 172.0 2.5 L 172.5 2.0 L 173.0 1.5 Z M 933.0 25.5 L 934.0 25.5 L 935.0 25.5 L 936.0 25.5 L 937.0 25.5 L 938.0 25.5 L 939.0 25.5 L 939.5 26.0 L 940.0 26.5 L 941.0 26.5 L 942.0 26.5 L 943.0 26.5 L 943.5 27.0 L 944.0 27.5 L 945.0 27.5 L 945.5 28.0 L 946.0 28.5 L 946.5 29.0 L 947.0 29.5 L 948.0 29.5 L 948.5 30.0 L 949.0 30.5 L 949.5 31.0 L 950.0 31.5 L 950.5 32.0 L 950.5 33.0 L 951.0 33.5 L 951.5 34.0 L 952.0 34.5 L 952.5 35.0 L 952.5 36.0 L 953.0 36.5 L 953.5 37.0 L 953.5 38.0 L 954.0 38.5 L 954.5 39.0 L 954.5 40.0 L 954.5 41.0 L 954.5 42.0 L 954.5 43.0 L 954.5 44.0 L 954.5 45.0 L 954.5 46.0 L 954.5 47.0 L 954.5 48.0 L 954.5 49.0 L 954.5 50.0 L 954.5 51.0 L 954.5 52.0 L 954.5 53.0 L 954.5 54.0 L 954.5 55.0 L 954.5 56.0 L 954.5 57.0 L 954.5 58.0 L 954.5 59.0 L 954.5 60.0 L 954.5 61.0 L 954.5 62.0 L 954.5 63.0 L 954.5 64.0 L 954.5 65.0 L 954.5 66.0 L 954.5 67.0 L 954.5 68.0 L 954.5 69.0 L 954.5 70.0 L 954.5 71.0 L 954.5 72.0 L 954.5 73.0 L 954.5 74.0 L 954.5 75.0 L 954.5 76.0 L 954.5 77.0 L 954.5 78.0 L 954.5 79.0 L 954.5 80.0 L 954.5 81.0 L 954.5 82.0 L 954.5 83.0 L 955.0 83.5 L 956.0 83.5 L 957.0 83.5 L 958.0 83.5 L 959.0 83.5 L 959.5 84.0 L 960.0 84.5 L 961.0 84.5 L 962.0 84.5 L 963.0 84.5 L 964.0 84.5 L 965.0 84.5 L 966.0 84.5 L 967.0 84.5 L 967.5 84.0 L 968.0 83.5 L 969.0 83.5 L 970.0 83.5 L 971.0 83.5 L 972.0 83.5 L 973.0 83.5 L 974.0 83.5 L 975.0 83.5 L 976.0 83.5 L 977.0 83.5 L 978.0 83.5 L 979.0 83.5 L 980.0 83.5 L 981.0 83.5 L 982.0 83.5 L 983.0 83.5 L 984.0 83.5 L 985.0 83.5 L 986.0 83.5 L 987.0 83.5 L 988.0 83.5 L 989.0 83.5 L 990.0 83.5 L 991.0 83.5 L 992.0 83.5 L 993.0 83.5 L 994.0 83.5 L 995.0 83.5 L 996.0 83.5 L 997.0 83.5 L 998.0 83.5 L 999.0 83.5 L 1000.0 83.5 L 1001.0 83.5 L 1001.5 84.0 L 1002.0 84.5 L 1002.5 84.0 L 1003.0 83.5 L 1004.0 83.5 L 1005.0 83.5 L 1005.5 84.0 L 1006.0 84.5 L 1006.5 84.0 L 1007.0 83.5 L 1008.0 83.5 L 1009.0 83.5 L 1009.5 84.0 L 1010.0 84.5 L 1011.0 84.5 L 1012.0 84.5 L 1013.0 84.5 L 1014.0 84.5 L 1014.5 85.0 L 1015.0 85.5 L 1016.0 85.5 L 1016.5 86.0 L 1017.0 86.5 L 1018.0 86.5 L 1018.5 87.0 L 1019.0 87.5 L 1019.5 88.0 L 1020.0 88.5 L 1020.5 89.0 L 1021.0 89.5 L 1021.5 90.0 L 1022.0 90.5 L 1022.5 91.0 L 1022.5 92.0 L 1023.0 92.5 L 1023.5 93.0 L 1024.0 93.5 L 1024.5 94.0 L 1024.5 95.0 L 1024.5 96.0 L 1025.0 96.5 L 1025.5 97.0 L 1025.5 98.0 L 1025.5 99.0 L 1025.5 100.0 L 1025.5 101.0 L 1025.5 102.0 L 1025.5 103.0 L 1025.5 104.0 L 1025.5 105.0 L 1025.5 106.0 L 1025.5 107.0 L 1025.5 108.0 L 1025.0 108.5 L 1024.5 109.0 L 1024.5 110.0 L 1024.0 110.5 L 1023.5 111.0 L 1023.5 112.0 L 1023.0 112.5 L 1022.5 113.0 L 1022.0 113.5 L 1021.5 114.0 L 1021.0 114.5 L 1020.5 115.0 L 1020.0 115.5 L 1019.5 116.0 L 1019.0 116.5 L 1018.5 117.0 L 1018.0 117.5 L 1017.5 118.0 L 1017.0 118.5 L 1016.0 118.5 L 1015.5 119.0 L 1015.0 119.5 L 1014.0 119.5 L 1013.0 119.5 L 1012.0 119.5 L 1011.5 120.0 L 1011.0 120.5 L 1010.0 120.5 L 1009.0 120.5 L 1008.0 120.5 L 1007.0 120.5 L 1006.0 120.5 L 1005.0 120.5 L 1004.0 120.5 L 1003.0 120.5 L 1002.0 120.5 L 1001.0 120.5 L 1000.0 120.5 L 999.0 120.5 L 998.0 120.5 L 997.0 120.5 L 996.0 120.5 L 995.0 120.5 L 994.0 120.5 L 993.0 120.5 L 992.0 120.5 L 991.0 120.5 L 990.0 120.5 L 989.0 120.5 L 988.0 120.5 L 987.0 120.5 L 986.0 120.5 L 985.0 120.5 L 984.0 120.5 L 983.0 120.5 L 982.0 120.5 L 981.0 120.5 L 980.0 120.5 L 979.0 120.5 L 978.0 120.5 L 977.0 120.5 L 976.0 120.5 L 975.0 120.5 L 974.0 120.5 L 973.0 120.5 L 972.0 120.5 L 971.0 120.5 L 970.0 120.5 L 969.0 120.5 L 968.0 120.5 L 967.0 120.5 L 966.0 120.5 L 965.0 120.5 L 964.0 120.5 L 963.0 120.5 L 962.0 120.5 L 961.0 120.5 L 960.0 120.5 L 959.0 120.5 L 958.0 120.5 L 957.0 120.5 L 956.0 120.5 L 955.0 120.5 L 954.5 121.0 L 954.5 122.0 L 954.5 123.0 L 954.5 124.0 L 954.5 125.0 L 954.5 126.0 L 954.5 127.0 L 954.5 128.0 L 954.5 129.0 L 954.5 130.0 L 954.5 131.0 L 954.5 132.0 L 954.5 133.0 L 954.5 134.0 L 954.5 135.0 L 954.5 136.0 L 954.5 137.0 L 954.5 138.0 L 954.5 139.0 L 954.5 140.0 L 954.5 141.0 L 954.5 142.0 L 954.5 143.0 L 954.5 144.0 L 954.5 145.0 L 954.5 146.0 L 954.5 147.0 L 954.5 148.0 L 954.5 149.0 L 954.5 150.0 L 954.5 151.0 L 954.5 152.0 L 954.5 153.0 L 954.5 154.0 L 954.5 155.0 L 954.5 156.0 L 954.5 157.0 L 954.5 158.0 L 954.5 159.0 L 954.5 160.0 L 954.5 161.0 L 954.5 162.0 L 954.5 163.0 L 954.5 164.0 L 954.5 165.0 L 954.5 166.0 L 954.5 167.0 L 954.5 168.0 L 954.5 169.0 L 954.5 170.0 L 954.5 171.0 L 954.5 172.0 L 954.5 173.0 L 954.5 174.0 L 954.5 175.0 L 954.5 176.0 L 954.5 177.0 L 954.5 178.0 L 954.5 179.0 L 954.5 180.0 L 954.5 181.0 L 954.5 182.0 L 954.5 183.0 L 954.5 184.0 L 954.5 185.0 L 954.5 186.0 L 954.5 187.0 L 954.5 188.0 L 954.5 189.0 L 954.5 190.0 L 954.5 191.0 L 954.5 192.0 L 954.5 193.0 L 954.5 194.0 L 954.5 195.0 L 954.5 196.0 L 954.5 197.0 L 954.5 198.0 L 954.5 199.0 L 954.5 200.0 L 954.5 201.0 L 954.5 202.0 L 954.5 203.0 L 955.0 203.5 L 955.5 204.0 L 955.5 205.0 L 955.5 206.0 L 955.5 207.0 L 955.5 208.0 L 955.5 209.0 L 955.5 210.0 L 955.5 211.0 L 956.0 211.5 L 956.5 212.0 L 956.5 213.0 L 956.5 214.0 L 956.5 215.0 L 956.5 216.0 L 957.0 216.5 L 957.5 217.0 L 957.5 218.0 L 957.5 219.0 L 957.5 220.0 L 958.0 220.5 L 958.5 221.0 L 958.5 222.0 L 959.0 222.5 L 959.5 223.0 L 959.5 224.0 L 959.5 225.0 L 959.5 226.0 L 960.0 226.5 L 960.5 227.0 L 960.5 228.0 L 960.5 229.0 L 961.0 229.5 L 961.5 230.0 L 961.5 231.0 L 962.0 231.5 L 962.5 232.0 L 962.5 233.0 L 962.5 234.0 L 963.0 234.5 L 963.5 235.0 L 964.0 235.5 L 964.5 236.0 L 964.5 237.0 L 965.0 237.5 L 965.5 238.0 L 965.5 239.0 L 966.0 239.5 L 966.5 240.0 L 966.5 241.0 L 967.0 241.5 L 967.5 242.0 L 968.0 242.5 L 968.5 243.0 L 968.5 244.0 L 969.0 244.5 L 969.5 245.0 L 970.0 245.5 L 970.5 246.0 L 970.5 247.0 L 971.0 247.5 L 971.5 248.0 L 972.0 248.5 L 972.5 249.0 L 973.0 249.5 L 973.5 250.0 L 974.0 250.5 L 974.5 251.0 L 975.0 251.5 L 975.5 252.0 L 976.0 252.5 L 976.5 253.0 L 977.0 253.5 L 977.5 254.0 L 978.0 254.5 L 978.5 255.0 L 979.0 255.5 L 979.5 256.0 L 980.0 256.5 L 980.5 257.0 L 981.0 257.5 L 981.5 258.0 L 982.0 258.5 L 982.5 259.0 L 983.0 259.5 L 983.5 260.0 L 984.0 260.5 L 984.5 261.0 L 985.0 261.5 L 986.0 261.5 L 986.5 262.0 L 987.0 262.5 L 987.5 263.0 L 988.0 263.5 L 988.5 264.0 L 989.0 264.5 L 990.0 264.5 L 990.5 265.0 L 991.0 265.5 L 992.0 265.5 L 992.5 266.0 L 993.0 266.5 L 993.5 267.0 L 994.0 267.5 L 995.0 267.5 L 995.5 268.0 L 996.0 268.5 L 997.0 268.5 L 997.5 269.0 L 998.0 269.5 L 999.0 269.5 L 999.5 270.0 L 1000.0 270.5 L 1001.0 270.5 L 1001.5 271.0 L 1002.0 271.5 L 1003.0 271.5 L 1004.0 271.5 L 1004.5 272.0 L 1005.0 272.5 L 1006.0 272.5 L 1007.0 272.5 L 1007.5 273.0 L 1008.0 273.5 L 1009.0 273.5 L 1010.0 273.5 L 1011.0 273.5 L 1011.5 274.0 L 1012.0 274.5 L 1013.0 274.5 L 1014.0 274.5 L 1015.0 274.5 L 1016.0 274.5 L 1016.5 275.0 L 1016.0 275.5 L 1015.0 275.5 L 1014.0 275.5 L 1013.0 275.5 L 1012.0 275.5 L 1011.0 275.5 L 1010.0 275.5 L 1009.0 275.5 L 1008.0 275.5 L 1007.0 275.5 L 1006.0 275.5 L 1005.0 275.5 L 1004.0 275.5 L 1003.0 275.5 L 1002.0 275.5 L 1001.0 275.5 L 1000.0 275.5 L 999.0 275.5 L 998.0 275.5 L 997.0 275.5 L 996.0 275.5 L 995.0 275.5 L 994.0 275.5 L 993.0 275.5 L 992.0 275.5 L 991.0 275.5 L 990.0 275.5 L 989.0 275.5 L 988.0 275.5 L 987.0 275.5 L 986.0 275.5 L 985.0 275.5 L 984.0 275.5 L 983.0 275.5 L 982.5 275.0 L 982.0 274.5 L 981.0 274.5 L 980.0 274.5 L 979.0 274.5 L 978.0 274.5 L 977.0 274.5 L 976.5 274.0 L 976.0 273.5 L 975.0 273.5 L 974.0 273.5 L 973.0 273.5 L 972.5 273.0 L 972.0 272.5 L 971.0 272.5 L 970.0 272.5 L 969.5 272.0 L 969.0 271.5 L 968.0 271.5 L 967.0 271.5 L 966.5 271.0 L 966.0 270.5 L 965.0 270.5 L 964.0 270.5 L 963.5 270.0 L 963.0 269.5 L 962.0 269.5 L 961.5 269.0 L 961.0 268.5 L 960.0 268.5 L 959.5 268.0 L 959.0 267.5 L 958.0 267.5 L 957.5 267.0 L 957.0 266.5 L 956.0 266.5 L 955.5 266.0 L 955.0 265.5 L 954.0 265.5 L 953.5 265.0 L 953.0 264.5 L 952.0 264.5 L 951.5 264.0 L 951.0 263.5 L 950.5 263.0 L 950.0 262.5 L 949.0 262.5 L 948.5 262.0 L 948.0 261.5 L 947.5 261.0 L 947.0 260.5 L 946.5 260.0 L 946.0 259.5 L 945.0 259.5 L 944.5 259.0 L 944.0 258.5 L 943.5 258.0 L 943.0 257.5 L 942.5 257.0 L 942.0 256.5 L 941.5 256.0 L 941.0 255.5 L 940.0 255.5 L 939.5 255.0 L 939.0 254.5 L 938.5 254.0 L 938.0 253.5 L 937.5 253.0 L 937.0 252.5 L 936.5 252.0 L 936.5 251.0 L 936.0 250.5 L 935.5 250.0 L 935.0 249.5 L 934.5 249.0 L 934.0 248.5 L 933.5 248.0 L 933.0 247.5 L 932.5 247.0 L 932.0 246.5 L 931.5 246.0 L 931.5 245.0 L 931.0 244.5 L 930.5 244.0 L 930.0 243.5 L 929.5 243.0 L 929.0 242.5 L 928.5 242.0 L 928.5 241.0 L 928.0 240.5 L 927.5 240.0 L 927.0 239.5 L 926.5 239.0 L 926.5 238.0 L 926.0 237.5 L 925.5 237.0 L 925.5 236.0 L 925.0 235.5 L 924.5 235.0 L 924.5 234.0 L 924.0 233.5 L 923.5 233.0 L 923.5 232.0 L 923.0 231.5 L 922.5 231.0 L 922.5 230.0 L 922.5 229.0 L 922.0 228.5 L 921.5 228.0 L 921.5 227.0 L 921.0 226.5 L 920.5 226.0 L 920.5 225.0 L 920.5 224.0 L 920.0 223.5 L 919.5 223.0 L 919.5 222.0 L 919.5 221.0 L 919.5 220.0 L 919.0 219.5 L 918.5 219.0 L 918.5 218.0 L 918.5 217.0 L 918.5 216.0 L 918.0 215.5 L 917.5 215.0 L 917.5 214.0 L 917.5 213.0 L 917.5 212.0 L 917.5 211.0 L 917.5 210.0 L 917.5 209.0 L 917.5 208.0 L 917.0 207.5 L 916.5 207.0 L 916.5 206.0 L 916.5 205.0 L 916.5 204.0 L 916.5 203.0 L 916.5 202.0 L 916.5 201.0 L 916.5 200.0 L 916.5 199.0 L 916.5 198.0 L 916.5 197.0 L 916.5 196.0 L 916.5 195.0 L 916.5 194.0 L 916.5 193.0 L 916.5 192.0 L 916.5 191.0 L 916.5 190.0 L 916.5 189.0 L 916.5 188.0 L 916.5 187.0 L 916.5 186.0 L 916.5 185.0 L 916.5 184.0 L 916.5 183.0 L 916.5 182.0 L 916.5 181.0 L 916.5 180.0 L 916.5 179.0 L 916.5 178.0 L 916.5 177.0 L 916.5 176.0 L 916.5 175.0 L 916.5 174.0 L 916.5 173.0 L 916.5 172.0 L 916.5 171.0 L 916.5 170.0 L 916.5 169.0 L 916.5 168.0 L 916.5 167.0 L 916.5 166.0 L 916.5 165.0 L 916.5 164.0 L 916.5 163.0 L 916.5 162.0 L 916.5 161.0 L 916.5 160.0 L 916.5 159.0 L 916.5 158.0 L 916.5 157.0 L 916.5 156.0 L 916.5 155.0 L 916.5 154.0 L 916.5 153.0 L 916.5 152.0 L 916.5 151.0 L 916.5 150.0 L 916.5 149.0 L 916.5 148.0 L 916.5 147.0 L 916.5 146.0 L 916.5 145.0 L 916.5 144.0 L 916.5 143.0 L 916.5 142.0 L 916.5 141.0 L 916.5 140.0 L 916.5 139.0 L 916.5 138.0 L 916.5 137.0 L 916.5 136.0 L 916.5 135.0 L 916.5 134.0 L 916.5 133.0 L 916.5 132.0 L 916.5 131.0 L 916.5 130.0 L 916.5 129.0 L 916.5 128.0 L 916.5 127.0 L 916.5 126.0 L 916.5 125.0 L 916.5 124.0 L 916.5 123.0 L 916.5 122.0 L 916.5 121.0 L 916.5 120.0 L 916.5 119.0 L 916.5 118.0 L 916.5 117.0 L 916.5 116.0 L 916.5 115.0 L 916.5 114.0 L 916.5 113.0 L 916.5 112.0 L 916.5 111.0 L 916.5 110.0 L 916.5 109.0 L 916.5 108.0 L 916.5 107.0 L 916.5 106.0 L 916.5 105.0 L 916.5 104.0 L 916.5 103.0 L 916.5 102.0 L 916.5 101.0 L 916.5 100.0 L 916.5 99.0 L 916.5 98.0 L 916.5 97.0 L 916.5 96.0 L 916.5 95.0 L 916.5 94.0 L 916.5 93.0 L 916.5 92.0 L 916.5 91.0 L 916.5 90.0 L 916.5 89.0 L 916.5 88.0 L 916.5 87.0 L 916.5 86.0 L 916.5 85.0 L 916.5 84.0 L 917.0 83.5 L 917.5 83.0 L 917.5 82.0 L 917.5 81.0 L 917.5 80.0 L 917.5 79.0 L 917.5 78.0 L 917.5 77.0 L 917.5 76.0 L 917.5 75.0 L 917.5 74.0 L 917.5 73.0 L 917.5 72.0 L 917.5 71.0 L 917.5 70.0 L 917.5 69.0 L 917.5 68.0 L 917.5 67.0 L 917.5 66.0 L 917.5 65.0 L 917.5 64.0 L 917.5 63.0 L 917.5 62.0 L 917.5 61.0 L 917.5 60.0 L 917.5 59.0 L 917.5 58.0 L 917.5 57.0 L 917.5 56.0 L 917.5 55.0 L 917.5 54.0 L 917.5 53.0 L 917.5 52.0 L 917.5 51.0 L 917.5 50.0 L 917.5 49.0 L 917.5 48.0 L 917.5 47.0 L 917.5 46.0 L 917.5 45.0 L 917.5 44.0 L 917.5 43.0 L 917.5 42.0 L 917.5 41.0 L 917.5 40.0 L 917.5 39.0 L 918.0 38.5 L 918.5 38.0 L 918.5 37.0 L 919.0 36.5 L 919.5 36.0 L 919.5 35.0 L 920.0 34.5 L 920.5 34.0 L 920.5 33.0 L 921.0 32.5 L 921.5 32.0 L 922.0 31.5 L 922.5 31.0 L 923.0 30.5 L 923.5 30.0 L 924.0 29.5 L 925.0 29.5 L 925.5 29.0 L 926.0 28.5 L 926.5 28.0 L 927.0 27.5 L 928.0 27.5 L 929.0 27.5 L 929.5 27.0 L 930.0 26.5 L 931.0 26.5 L 932.0 26.5 L 932.5 26.0 L 933.0 25.5 Z M 548.0 80.5 L 549.0 80.5 L 550.0 80.5 L 551.0 80.5 L 552.0 80.5 L 553.0 80.5 L 554.0 80.5 L 555.0 80.5 L 556.0 80.5 L 557.0 80.5 L 558.0 80.5 L 559.0 80.5 L 560.0 80.5 L 560.5 81.0 L 561.0 81.5 L 562.0 81.5 L 563.0 81.5 L 564.0 81.5 L 565.0 81.5 L 566.0 81.5 L 567.0 81.5 L 568.0 81.5 L 569.0 81.5 L 570.0 81.5 L 570.5 82.0 L 571.0 82.5 L 572.0 82.5 L 573.0 82.5 L 574.0 82.5 L 575.0 82.5 L 575.5 83.0 L 576.0 83.5 L 577.0 83.5 L 578.0 83.5 L 579.0 83.5 L 580.0 83.5 L 580.5 84.0 L 581.0 84.5 L 582.0 84.5 L 583.0 84.5 L 583.5 85.0 L 584.0 85.5 L 585.0 85.5 L 586.0 85.5 L 586.5 86.0 L 587.0 86.5 L 588.0 86.5 L 588.5 87.0 L 589.0 87.5 L 590.0 87.5 L 591.0 87.5 L 591.5 88.0 L 592.0 88.5 L 593.0 88.5 L 593.5 89.0 L 594.0 89.5 L 595.0 89.5 L 596.0 89.5 L 596.5 90.0 L 597.0 90.5 L 598.0 90.5 L 598.5 91.0 L 599.0 91.5 L 600.0 91.5 L 600.5 92.0 L 601.0 92.5 L 601.5 93.0 L 602.0 93.5 L 603.0 93.5 L 603.5 94.0 L 604.0 94.5 L 605.0 94.5 L 605.5 95.0 L 606.0 95.5 L 606.5 96.0 L 607.0 96.5 L 608.0 96.5 L 608.5 97.0 L 609.0 97.5 L 609.5 98.0 L 610.0 98.5 L 611.0 98.5 L 611.5 99.0 L 612.0 99.5 L 612.5 100.0 L 613.0 100.5 L 614.0 100.5 L 614.5 101.0 L 615.0 101.5 L 615.5 102.0 L 616.0 102.5 L 616.5 103.0 L 617.0 103.5 L 617.5 104.0 L 618.0 104.5 L 618.5 105.0 L 619.0 105.5 L 619.5 106.0 L 620.0 106.5 L 620.5 107.0 L 621.0 107.5 L 621.5 108.0 L 622.0 108.5 L 623.0 108.5 L 623.5 109.0 L 624.0 109.5 L 624.5 110.0 L 624.5 111.0 L 625.0 111.5 L 625.5 112.0 L 626.0 112.5 L 626.5 113.0 L 627.0 113.5 L 627.5 114.0 L 628.0 114.5 L 628.5 115.0 L 629.0 115.5 L 629.5 116.0 L 630.0 116.5 L 630.5 117.0 L 631.0 117.5 L 631.5 118.0 L 631.5 119.0 L 632.0 119.5 L 632.5 120.0 L 633.0 120.5 L 633.5 121.0 L 633.5 122.0 L 634.0 122.5 L 634.5 123.0 L 635.0 123.5 L 635.5 124.0 L 635.5 125.0 L 636.0 125.5 L 636.5 126.0 L 637.0 126.5 L 637.5 127.0 L 637.5 128.0 L 638.0 128.5 L 638.5 129.0 L 638.5 130.0 L 639.0 130.5 L 639.5 131.0 L 639.5 132.0 L 640.0 132.5 L 640.5 133.0 L 640.5 134.0 L 641.0 134.5 L 641.5 135.0 L 641.5 136.0 L 642.0 136.5 L 642.5 137.0 L 642.5 138.0 L 643.0 138.5 L 643.5 139.0 L 643.5 140.0 L 644.0 140.5 L 644.5 141.0 L 644.5 142.0 L 644.5 143.0 L 645.0 143.5 L 645.5 144.0 L 645.5 145.0 L 645.5 146.0 L 646.0 146.5 L 646.5 147.0 L 646.5 148.0 L 646.5 149.0 L 647.0 149.5 L 647.5 150.0 L 647.5 151.0 L 647.5 152.0 L 647.5 153.0 L 648.0 153.5 L 648.5 154.0 L 648.5 155.0 L 648.5 156.0 L 648.5 157.0 L 648.5 158.0 L 649.0 158.5 L 649.5 159.0 L 649.5 160.0 L 649.5 161.0 L 649.5 162.0 L 649.5 163.0 L 649.5 164.0 L 649.5 165.0 L 650.0 165.5 L 650.5 166.0 L 650.5 167.0 L 650.5 168.0 L 650.5 169.0 L 650.5 170.0 L 650.5 171.0 L 650.5 172.0 L 650.5 173.0 L 650.5 174.0 L 650.5 175.0 L 650.5 176.0 L 650.5 177.0 L 650.5 178.0 L 650.5 179.0 L 650.5 180.0 L 650.5 181.0 L 650.5 182.0 L 650.5 183.0 L 650.5 184.0 L 650.5 185.0 L 650.5 186.0 L 650.5 187.0 L 650.5 188.0 L 650.5 189.0 L 650.5 190.0 L 650.5 191.0 L 650.5 192.0 L 650.5 193.0 L 650.5 194.0 L 650.5 195.0 L 650.5 196.0 L 650.5 197.0 L 650.5 198.0 L 650.5 199.0 L 650.5 200.0 L 650.5 201.0 L 650.5 202.0 L 650.5 203.0 L 650.5 204.0 L 650.5 205.0 L 650.5 206.0 L 650.5 207.0 L 650.5 208.0 L 650.5 209.0 L 650.5 210.0 L 650.5 211.0 L 650.5 212.0 L 650.5 213.0 L 650.5 214.0 L 650.5 215.0 L 650.5 216.0 L 650.5 217.0 L 650.5 218.0 L 650.5 219.0 L 650.5 220.0 L 650.5 221.0 L 650.5 222.0 L 650.5 223.0 L 650.5 224.0 L 650.5 225.0 L 650.5 226.0 L 650.5 227.0 L 650.5 228.0 L 650.5 229.0 L 650.5 230.0 L 650.5 231.0 L 650.5 232.0 L 650.5 233.0 L 650.5 234.0 L 650.5 235.0 L 650.5 236.0 L 650.5 237.0 L 650.5 238.0 L 650.5 239.0 L 650.5 240.0 L 650.5 241.0 L 650.5 242.0 L 650.5 243.0 L 650.5 244.0 L 650.5 245.0 L 650.5 246.0 L 650.5 247.0 L 650.5 248.0 L 650.5 249.0 L 650.5 250.0 L 650.5 251.0 L 650.5 252.0 L 650.5 253.0 L 650.5 254.0 L 650.5 255.0 L 650.5 256.0 L 650.5 257.0 L 650.5 258.0 L 650.5 259.0 L 650.5 260.0 L 650.5 261.0 L 650.5 262.0 L 650.0 262.5 L 649.5 263.0 L 649.5 264.0 L 649.5 265.0 L 649.0 265.5 L 648.5 266.0 L 648.5 267.0 L 648.0 267.5 L 647.5 268.0 L 647.0 268.5 L 646.5 269.0 L 646.5 270.0 L 646.0 270.5 L 645.5 271.0 L 645.0 271.5 L 644.5 272.0 L 644.0 272.5 L 643.5 273.0 L 643.0 273.5 L 642.0 273.5 L 641.5 274.0 L 641.0 274.5 L 640.0 274.5 L 639.5 275.0 L 639.0 275.5 L 638.0 275.5 L 637.0 275.5 L 636.0 275.5 L 635.5 276.0 L 635.0 276.5 L 634.0 276.5 L 633.0 276.5 L 632.0 276.5 L 631.0 276.5 L 630.0 276.5 L 629.5 276.0 L 629.0 275.5 L 628.0 275.5 L 627.0 275.5 L 626.0 275.5 L 625.5 275.0 L 625.0 274.5 L 624.0 274.5 L 623.5 274.0 L 623.0 273.5 L 622.0 273.5 L 621.5 273.0 L 621.0 272.5 L 620.5 272.0 L 620.0 271.5 L 619.5 271.0 L 619.0 270.5 L 618.5 270.0 L 618.0 269.5 L 617.5 269.0 L 617.0 268.5 L 616.5 268.0 L 616.5 267.0 L 616.0 266.5 L 615.5 266.0 L 615.5 265.0 L 615.0 264.5 L 614.5 264.0 L 614.5 263.0 L 614.5 262.0 L 614.0 261.5 L 613.5 261.0 L 613.5 260.0 L 613.5 259.0 L 613.5 258.0 L 613.5 257.0 L 613.5 256.0 L 613.5 255.0 L 613.5 254.0 L 613.0 253.5 L 612.0 253.5 L 611.5 254.0 L 611.0 254.5 L 610.5 255.0 L 610.0 255.5 L 609.5 256.0 L 609.0 256.5 L 608.5 257.0 L 608.0 257.5 L 607.5 258.0 L 607.0 258.5 L 606.0 258.5 L 605.5 259.0 L 605.0 259.5 L 604.5 260.0 L 604.0 260.5 L 603.0 260.5 L 602.5 261.0 L 602.0 261.5 L 601.5 262.0 L 601.0 262.5 L 600.0 262.5 L 599.5 263.0 L 599.0 263.5 L 598.5 264.0 L 598.0 264.5 L 597.0 264.5 L 596.5 265.0 L 596.0 265.5 L 595.0 265.5 L 594.5 266.0 L 594.0 266.5 L 593.0 266.5 L 592.5 267.0 L 592.0 267.5 L 591.0 267.5 L 590.5 268.0 L 590.0 268.5 L 589.0 268.5 L 588.5 269.0 L 588.0 269.5 L 587.0 269.5 L 586.0 269.5 L 585.5 270.0 L 585.0 270.5 L 584.0 270.5 L 583.0 270.5 L 582.5 271.0 L 582.0 271.5 L 581.0 271.5 L 580.0 271.5 L 579.5 272.0 L 579.0 272.5 L 578.0 272.5 L 577.0 272.5 L 576.0 272.5 L 575.5 273.0 L 575.0 273.5 L 574.0 273.5 L 573.0 273.5 L 572.0 273.5 L 571.5 274.0 L 571.0 274.5 L 570.0 274.5 L 569.0 274.5 L 568.0 274.5 L 567.0 274.5 L 566.0 274.5 L 565.5 275.0 L 565.0 275.5 L 564.0 275.5 L 563.0 275.5 L 562.0 275.5 L 561.0 275.5 L 560.0 275.5 L 559.0 275.5 L 558.0 275.5 L 557.0 275.5 L 556.0 275.5 L 555.0 275.5 L 554.0 275.5 L 553.0 275.5 L 552.0 275.5 L 551.0 275.5 L 550.0 275.5 L 549.0 275.5 L 548.0 275.5 L 547.0 275.5 L 546.0 275.5 L 545.0 275.5 L 544.0 275.5 L 543.0 275.5 L 542.0 275.5 L 541.0 275.5 L 540.5 275.0 L 540.0 274.5 L 539.0 274.5 L 538.0 274.5 L 537.0 274.5 L 536.0 274.5 L 535.0 274.5 L 534.5 274.0 L 534.0 273.5 L 533.0 273.5 L 532.0 273.5 L 531.0 273.5 L 530.0 273.5 L 529.0 273.5 L 528.5 273.0 L 528.0 272.5 L 527.0 272.5 L 526.0 272.5 L 525.5 272.0 L 525.0 271.5 L 524.0 271.5 L 523.0 271.5 L 522.0 271.5 L 521.5 271.0 L 521.0 270.5 L 520.0 270.5 L 519.5 270.0 L 519.0 269.5 L 518.0 269.5 L 517.0 269.5 L 516.5 269.0 L 516.0 268.5 L 515.0 268.5 L 514.5 268.0 L 514.0 267.5 L 513.0 267.5 L 512.0 267.5 L 511.5 267.0 L 511.0 266.5 L 510.0 266.5 L 509.5 266.0 L 509.0 265.5 L 508.0 265.5 L 507.5 265.0 L 507.0 264.5 L 506.0 264.5 L 505.5 264.0 L 505.0 263.5 L 504.5 263.0 L 504.0 262.5 L 503.0 262.5 L 502.5 262.0 L 502.0 261.5 L 501.0 261.5 L 500.5 261.0 L 500.0 260.5 L 499.5 260.0 L 499.0 259.5 L 498.0 259.5 L 497.5 259.0 L 497.0 258.5 L 496.5 258.0 L 496.0 257.5 L 495.0 257.5 L 494.5 257.0 L 494.0 256.5 L 493.5 256.0 L 493.0 255.5 L 492.0 255.5 L 491.5 255.0 L 491.0 254.5 L 490.5 254.0 L 490.0 253.5 L 489.5 253.0 L 489.0 252.5 L 488.5 252.0 L 488.0 251.5 L 487.5 251.0 L 487.0 250.5 L 486.5 250.0 L 486.0 249.5 L 485.5 249.0 L 485.0 248.5 L 484.0 248.5 L 483.5 248.0 L 483.0 247.5 L 482.5 247.0 L 482.5 246.0 L 482.0 245.5 L 481.5 245.0 L 481.0 244.5 L 480.5 244.0 L 480.0 243.5 L 479.5 243.0 L 479.0 242.5 L 478.5 242.0 L 478.0 241.5 L 477.5 241.0 L 477.0 240.5 L 476.5 240.0 L 476.0 239.5 L 475.5 239.0 L 475.5 238.0 L 475.0 237.5 L 474.5 237.0 L 474.0 236.5 L 473.5 236.0 L 473.0 235.5 L 472.5 235.0 L 472.5 234.0 L 472.0 233.5 L 471.5 233.0 L 471.0 232.5 L 470.5 232.0 L 470.5 231.0 L 470.0 230.5 L 469.5 230.0 L 469.5 229.0 L 469.0 228.5 L 468.5 228.0 L 468.0 227.5 L 467.5 227.0 L 467.5 226.0 L 467.0 225.5 L 466.5 225.0 L 466.5 224.0 L 466.0 223.5 L 465.5 223.0 L 465.5 222.0 L 465.0 221.5 L 464.5 221.0 L 464.5 220.0 L 464.0 219.5 L 463.5 219.0 L 463.5 218.0 L 463.0 217.5 L 462.5 217.0 L 462.5 216.0 L 462.5 215.0 L 462.0 214.5 L 461.5 214.0 L 461.5 213.0 L 461.0 212.5 L 460.5 212.0 L 460.5 211.0 L 460.5 210.0 L 460.0 209.5 L 459.5 209.0 L 459.5 208.0 L 459.5 207.0 L 459.5 206.0 L 459.0 205.5 L 458.5 205.0 L 458.5 204.0 L 458.5 203.0 L 458.5 202.0 L 458.0 201.5 L 457.5 201.0 L 457.5 200.0 L 457.5 199.0 L 457.5 198.0 L 457.0 197.5 L 456.5 197.0 L 456.5 196.0 L 456.5 195.0 L 456.5 194.0 L 456.5 193.0 L 456.5 192.0 L 456.5 191.0 L 456.0 190.5 L 455.5 190.0 L 455.5 189.0 L 455.5 188.0 L 455.5 187.0 L 455.5 186.0 L 455.5 185.0 L 455.5 184.0 L 455.5 183.0 L 455.5 182.0 L 455.5 181.0 L 455.5 180.0 L 455.5 179.0 L 455.5 178.0 L 455.5 177.0 L 455.5 176.0 L 455.5 175.0 L 455.5 174.0 L 455.5 173.0 L 455.5 172.0 L 455.5 171.0 L 455.5 170.0 L 455.5 169.0 L 455.5 168.0 L 455.5 167.0 L 456.0 166.5 L 456.5 166.0 L 456.5 165.0 L 456.5 164.0 L 456.5 163.0 L 456.5 162.0 L 456.5 161.0 L 457.0 160.5 L 457.5 160.0 L 457.5 159.0 L 457.5 158.0 L 457.5 157.0 L 457.5 156.0 L 458.0 155.5 L 458.5 155.0 L 458.5 154.0 L 458.5 153.0 L 459.0 152.5 L 459.5 152.0 L 459.5 151.0 L 459.5 150.0 L 460.0 149.5 L 460.5 149.0 L 460.5 148.0 L 460.5 147.0 L 461.0 146.5 L 461.5 146.0 L 461.5 145.0 L 461.5 144.0 L 462.0 143.5 L 462.5 143.0 L 462.5 142.0 L 463.0 141.5 L 463.5 141.0 L 463.5 140.0 L 463.5 139.0 L 464.0 138.5 L 464.5 138.0 L 464.5 137.0 L 465.0 136.5 L 465.5 136.0 L 465.5 135.0 L 466.0 134.5 L 466.5 134.0 L 466.5 133.0 L 467.0 132.5 L 467.5 132.0 L 467.5 131.0 L 468.0 130.5 L 468.5 130.0 L 469.0 129.5 L 469.5 129.0 L 469.5 128.0 L 470.0 127.5 L 470.5 127.0 L 471.0 126.5 L 471.5 126.0 L 471.5 125.0 L 472.0 124.5 L 472.5 124.0 L 473.0 123.5 L 473.5 123.0 L 473.5 122.0 L 474.0 121.5 L 474.5 121.0 L 475.0 120.5 L 475.5 120.0 L 476.0 119.5 L 476.5 119.0 L 476.5 118.0 L 477.0 117.5 L 477.5 117.0 L 478.0 116.5 L 478.5 116.0 L 479.0 115.5 L 479.5 115.0 L 480.0 114.5 L 480.5 114.0 L 481.0 113.5 L 481.5 113.0 L 482.0 112.5 L 482.5 112.0 L 482.5 111.0 L 483.0 110.5 L 484.0 110.5 L 484.5 110.0 L 485.0 109.5 L 485.5 109.0 L 486.0 108.5 L 486.5 108.0 L 487.0 107.5 L 487.5 107.0 L 488.0 106.5 L 488.5 106.0 L 489.0 105.5 L 489.5 105.0 L 490.0 104.5 L 490.5 104.0 L 491.0 103.5 L 491.5 103.0 L 492.0 102.5 L 493.0 102.5 L 493.5 102.0 L 494.0 101.5 L 494.5 101.0 L 495.0 100.5 L 495.5 100.0 L 496.0 99.5 L 497.0 99.5 L 497.5 99.0 L 498.0 98.5 L 498.5 98.0 L 499.0 97.5 L 500.0 97.5 L 500.5 97.0 L 501.0 96.5 L 501.5 96.0 L 502.0 95.5 L 503.0 95.5 L 503.5 95.0 L 504.0 94.5 L 505.0 94.5 L 505.5 94.0 L 506.0 93.5 L 506.5 93.0 L 507.0 92.5 L 508.0 92.5 L 508.5 92.0 L 509.0 91.5 L 510.0 91.5 L 510.5 91.0 L 511.0 90.5 L 512.0 90.5 L 512.5 90.0 L 513.0 89.5 L 514.0 89.5 L 515.0 89.5 L 515.5 89.0 L 516.0 88.5 L 517.0 88.5 L 517.5 88.0 L 518.0 87.5 L 519.0 87.5 L 520.0 87.5 L 520.5 87.0 L 521.0 86.5 L 522.0 86.5 L 522.5 86.0 L 523.0 85.5 L 524.0 85.5 L 525.0 85.5 L 526.0 85.5 L 526.5 85.0 L 527.0 84.5 L 528.0 84.5 L 529.0 84.5 L 529.5 84.0 L 530.0 83.5 L 531.0 83.5 L 532.0 83.5 L 533.0 83.5 L 533.5 83.0 L 534.0 82.5 L 535.0 82.5 L 536.0 82.5 L 537.0 82.5 L 538.0 82.5 L 538.5 82.0 L 539.0 81.5 L 540.0 81.5 L 541.0 81.5 L 542.0 81.5 L 543.0 81.5 L 544.0 81.5 L 545.0 81.5 L 546.0 81.5 L 547.0 81.5 L 547.5 81.0 L 548.0 80.5 Z M 313.0 81.5 L 314.0 81.5 L 315.0 81.5 L 316.0 81.5 L 317.0 81.5 L 318.0 81.5 L 319.0 81.5 L 320.0 81.5 L 321.0 81.5 L 322.0 81.5 L 323.0 81.5 L 324.0 81.5 L 325.0 81.5 L 326.0 81.5 L 327.0 81.5 L 328.0 81.5 L 329.0 81.5 L 330.0 81.5 L 331.0 81.5 L 332.0 81.5 L 333.0 81.5 L 334.0 81.5 L 335.0 81.5 L 336.0 81.5 L 337.0 81.5 L 338.0 81.5 L 338.5 82.0 L 339.0 82.5 L 340.0 82.5 L 341.0 82.5 L 342.0 82.5 L 343.0 82.5 L 344.0 82.5 L 344.5 83.0 L 345.0 83.5 L 346.0 83.5 L 347.0 83.5 L 348.0 83.5 L 349.0 83.5 L 349.5 84.0 L 350.0 84.5 L 351.0 84.5 L 352.0 84.5 L 352.5 85.0 L 353.0 85.5 L 354.0 85.5 L 355.0 85.5 L 356.0 85.5 L 356.5 86.0 L 357.0 86.5 L 358.0 86.5 L 358.5 87.0 L 359.0 87.5 L 360.0 87.5 L 361.0 87.5 L 361.5 88.0 L 362.0 88.5 L 363.0 88.5 L 364.0 88.5 L 364.5 89.0 L 365.0 89.5 L 366.0 89.5 L 366.5 90.0 L 367.0 90.5 L 368.0 90.5 L 368.5 91.0 L 369.0 91.5 L 370.0 91.5 L 370.5 92.0 L 371.0 92.5 L 372.0 92.5 L 372.5 93.0 L 373.0 93.5 L 373.5 94.0 L 374.0 94.5 L 375.0 94.5 L 375.5 95.0 L 376.0 95.5 L 377.0 95.5 L 377.5 96.0 L 378.0 96.5 L 378.5 97.0 L 379.0 97.5 L 380.0 97.5 L 380.5 98.0 L 381.0 98.5 L 381.5 99.0 L 382.0 99.5 L 383.0 99.5 L 383.5 100.0 L 384.0 100.5 L 384.5 101.0 L 385.0 101.5 L 385.5 102.0 L 386.0 102.5 L 387.0 102.5 L 387.5 103.0 L 388.0 103.5 L 388.5 104.0 L 389.0 104.5 L 389.5 105.0 L 390.0 105.5 L 390.5 106.0 L 391.0 106.5 L 391.5 107.0 L 392.0 107.5 L 392.5 108.0 L 393.0 108.5 L 393.5 109.0 L 394.0 109.5 L 394.5 110.0 L 395.0 110.5 L 395.5 111.0 L 396.0 111.5 L 396.5 112.0 L 397.0 112.5 L 397.5 113.0 L 398.0 113.5 L 398.5 114.0 L 399.0 114.5 L 399.5 115.0 L 400.0 115.5 L 400.5 116.0 L 400.5 117.0 L 401.0 117.5 L 401.5 118.0 L 402.0 118.5 L 402.5 119.0 L 403.0 119.5 L 403.5 120.0 L 403.5 121.0 L 404.0 121.5 L 404.5 122.0 L 405.0 122.5 L 405.5 123.0 L 406.0 123.5 L 406.5 124.0 L 406.5 125.0 L 407.0 125.5 L 407.5 126.0 L 408.0 126.5 L 408.5 127.0 L 408.5 128.0 L 409.0 128.5 L 409.5 129.0 L 409.5 130.0 L 410.0 130.5 L 410.5 131.0 L 410.5 132.0 L 411.0 132.5 L 411.5 133.0 L 411.5 134.0 L 412.0 134.5 L 412.5 135.0 L 412.5 136.0 L 413.0 136.5 L 413.5 137.0 L 413.5 138.0 L 414.0 138.5 L 414.5 139.0 L 414.5 140.0 L 414.5 141.0 L 415.0 141.5 L 415.5 142.0 L 415.5 143.0 L 416.0 143.5 L 416.5 144.0 L 416.5 145.0 L 416.5 146.0 L 417.0 146.5 L 417.5 147.0 L 417.5 148.0 L 417.5 149.0 L 418.0 149.5 L 418.5 150.0 L 418.5 151.0 L 418.5 152.0 L 418.5 153.0 L 419.0 153.5 L 419.5 154.0 L 419.5 155.0 L 419.5 156.0 L 419.5 157.0 L 420.0 157.5 L 420.5 158.0 L 420.5 159.0 L 420.5 160.0 L 420.5 161.0 L 420.5 162.0 L 420.5 163.0 L 420.5 164.0 L 421.0 164.5 L 421.5 165.0 L 421.5 166.0 L 421.5 167.0 L 421.5 168.0 L 421.5 169.0 L 421.5 170.0 L 421.5 171.0 L 421.5 172.0 L 421.5 173.0 L 421.5 174.0 L 421.5 175.0 L 421.5 176.0 L 421.5 177.0 L 421.5 178.0 L 421.5 179.0 L 421.5 180.0 L 421.5 181.0 L 421.5 182.0 L 421.5 183.0 L 421.5 184.0 L 421.5 185.0 L 421.5 186.0 L 421.5 187.0 L 421.5 188.0 L 421.5 189.0 L 421.5 190.0 L 421.5 191.0 L 421.5 192.0 L 421.5 193.0 L 421.5 194.0 L 421.5 195.0 L 421.5 196.0 L 421.5 197.0 L 421.5 198.0 L 421.5 199.0 L 421.5 200.0 L 421.5 201.0 L 421.5 202.0 L 421.5 203.0 L 421.5 204.0 L 421.5 205.0 L 421.5 206.0 L 421.5 207.0 L 421.5 208.0 L 421.5 209.0 L 421.5 210.0 L 421.5 211.0 L 421.5 212.0 L 421.5 213.0 L 421.5 214.0 L 421.5 215.0 L 421.5 216.0 L 421.5 217.0 L 421.5 218.0 L 421.5 219.0 L 421.5 220.0 L 421.5 221.0 L 421.5 222.0 L 421.5 223.0 L 421.5 224.0 L 421.5 225.0 L 421.5 226.0 L 421.5 227.0 L 421.5 228.0 L 421.5 229.0 L 421.5 230.0 L 421.5 231.0 L 421.5 232.0 L 421.5 233.0 L 421.5 234.0 L 421.5 235.0 L 421.5 236.0 L 421.5 237.0 L 421.5 238.0 L 421.5 239.0 L 421.5 240.0 L 421.5 241.0 L 421.5 242.0 L 421.5 243.0 L 421.5 244.0 L 421.5 245.0 L 421.5 246.0 L 421.5 247.0 L 421.5 248.0 L 421.5 249.0 L 421.5 250.0 L 421.5 251.0 L 421.5 252.0 L 421.5 253.0 L 421.5 254.0 L 421.5 255.0 L 421.5 256.0 L 421.5 257.0 L 421.5 258.0 L 421.5 259.0 L 421.5 260.0 L 421.5 261.0 L 421.5 262.0 L 421.5 263.0 L 421.0 263.5 L 420.5 264.0 L 420.5 265.0 L 420.5 266.0 L 420.0 266.5 L 419.5 267.0 L 419.0 267.5 L 418.5 268.0 L 418.5 269.0 L 418.0 269.5 L 417.5 270.0 L 417.0 270.5 L 416.5 271.0 L 416.0 271.5 L 415.5 272.0 L 415.0 272.5 L 414.5 273.0 L 414.0 273.5 L 413.0 273.5 L 412.5 274.0 L 412.0 274.5 L 411.0 274.5 L 410.5 275.0 L 410.0 275.5 L 409.0 275.5 L 408.0 275.5 L 407.0 275.5 L 406.5 276.0 L 406.0 276.5 L 405.0 276.5 L 404.0 276.5 L 403.0 276.5 L 402.0 276.5 L 401.0 276.5 L 400.5 276.0 L 400.0 275.5 L 399.0 275.5 L 398.0 275.5 L 397.0 275.5 L 396.5 275.0 L 396.0 274.5 L 395.0 274.5 L 394.5 274.0 L 394.0 273.5 L 393.0 273.5 L 392.5 273.0 L 392.0 272.5 L 391.5 272.0 L 391.0 271.5 L 390.5 271.0 L 390.0 270.5 L 389.5 270.0 L 389.0 269.5 L 388.5 269.0 L 388.0 268.5 L 387.5 268.0 L 387.5 267.0 L 387.0 266.5 L 386.5 266.0 L 386.5 265.0 L 386.5 264.0 L 386.0 263.5 L 385.5 263.0 L 385.5 262.0 L 385.5 261.0 L 385.5 260.0 L 385.5 259.0 L 385.5 258.0 L 385.5 257.0 L 385.5 256.0 L 385.5 255.0 L 385.5 254.0 L 385.0 253.5 L 384.5 253.0 L 384.0 252.5 L 383.5 253.0 L 383.0 253.5 L 382.5 254.0 L 382.0 254.5 L 381.5 255.0 L 381.0 255.5 L 380.5 256.0 L 380.0 256.5 L 379.5 257.0 L 379.0 257.5 L 378.0 257.5 L 377.5 258.0 L 377.0 258.5 L 376.5 259.0 L 376.0 259.5 L 375.5 260.0 L 375.0 260.5 L 374.0 260.5 L 373.5 261.0 L 373.0 261.5 L 372.5 262.0 L 372.0 262.5 L 371.0 262.5 L 370.5 263.0 L 370.0 263.5 L 369.0 263.5 L 368.5 264.0 L 368.0 264.5 L 367.5 265.0 L 367.0 265.5 L 366.0 265.5 L 365.5 266.0 L 365.0 266.5 L 364.0 266.5 L 363.5 267.0 L 363.0 267.5 L 362.0 267.5 L 361.0 267.5 L 360.5 268.0 L 360.0 268.5 L 359.0 268.5 L 358.5 269.0 L 358.0 269.5 L 357.0 269.5 L 356.0 269.5 L 355.5 270.0 L 355.0 270.5 L 354.0 270.5 L 353.5 271.0 L 353.0 271.5 L 352.0 271.5 L 351.0 271.5 L 350.0 271.5 L 349.5 272.0 L 349.0 272.5 L 348.0 272.5 L 347.0 272.5 L 346.0 272.5 L 345.5 273.0 L 345.0 273.5 L 344.0 273.5 L 343.0 273.5 L 342.0 273.5 L 341.5 274.0 L 341.0 274.5 L 340.0 274.5 L 339.0 274.5 L 338.0 274.5 L 337.0 274.5 L 336.0 274.5 L 335.0 274.5 L 334.5 275.0 L 334.0 275.5 L 333.0 275.5 L 332.0 275.5 L 331.0 275.5 L 330.0 275.5 L 329.0 275.5 L 328.0 275.5 L 327.0 275.5 L 326.0 275.5 L 325.0 275.5 L 324.0 275.5 L 323.0 275.5 L 322.0 275.5 L 321.0 275.5 L 320.0 275.5 L 319.0 275.5 L 318.0 275.5 L 317.0 275.5 L 316.0 275.5 L 315.0 275.5 L 314.0 275.5 L 313.0 275.5 L 312.5 275.0 L 312.0 274.5 L 311.0 274.5 L 310.0 274.5 L 309.0 274.5 L 308.0 274.5 L 307.0 274.5 L 306.0 274.5 L 305.5 274.0 L 305.0 273.5 L 304.0 273.5 L 303.0 273.5 L 302.0 273.5 L 301.0 273.5 L 300.5 273.0 L 300.0 272.5 L 299.0 272.5 L 298.0 272.5 L 297.0 272.5 L 296.5 272.0 L 296.0 271.5 L 295.0 271.5 L 294.0 271.5 L 293.5 271.0 L 293.0 270.5 L 292.0 270.5 L 291.0 270.5 L 290.5 270.0 L 290.0 269.5 L 289.0 269.5 L 288.5 269.0 L 288.0 268.5 L 287.0 268.5 L 286.0 268.5 L 285.5 268.0 L 285.0 267.5 L 284.0 267.5 L 283.5 267.0 L 283.0 266.5 L 282.0 266.5 L 281.5 266.0 L 281.0 265.5 L 280.0 265.5 L 279.5 265.0 L 279.0 264.5 L 278.0 264.5 L 277.5 264.0 L 277.0 263.5 L 276.0 263.5 L 275.5 263.0 L 275.0 262.5 L 274.0 262.5 L 273.5 262.0 L 273.0 261.5 L 272.5 261.0 L 272.0 260.5 L 271.0 260.5 L 270.5 260.0 L 270.0 259.5 L 269.5 259.0 L 269.0 258.5 L 268.0 258.5 L 267.5 258.0 L 267.0 257.5 L 266.5 257.0 L 266.0 256.5 L 265.0 256.5 L 264.5 256.0 L 264.0 255.5 L 263.5 255.0 L 263.0 254.5 L 262.5 254.0 L 262.0 253.5 L 261.5 253.0 L 261.0 252.5 L 260.0 252.5 L 259.5 252.0 L 259.0 251.5 L 258.5 251.0 L 258.0 250.5 L 257.5 250.0 L 257.0 249.5 L 256.5 249.0 L 256.0 248.5 L 255.5 248.0 L 255.0 247.5 L 254.5 247.0 L 254.0 246.5 L 253.5 246.0 L 253.0 245.5 L 252.5 245.0 L 252.0 244.5 L 251.5 244.0 L 251.0 243.5 L 250.5 243.0 L 250.0 242.5 L 249.5 242.0 L 249.5 241.0 L 249.0 240.5 L 248.5 240.0 L 248.0 239.5 L 247.5 239.0 L 247.0 238.5 L 246.5 238.0 L 246.0 237.5 L 245.5 237.0 L 245.5 236.0 L 245.0 235.5 L 244.5 235.0 L 244.0 234.5 L 243.5 234.0 L 243.5 233.0 L 243.0 232.5 L 242.5 232.0 L 242.0 231.5 L 241.5 231.0 L 241.5 230.0 L 241.0 229.5 L 240.5 229.0 L 240.0 228.5 L 239.5 228.0 L 239.5 227.0 L 239.0 226.5 L 238.5 226.0 L 238.5 225.0 L 238.0 224.5 L 237.5 224.0 L 237.5 223.0 L 237.0 222.5 L 236.5 222.0 L 236.5 221.0 L 236.0 220.5 L 235.5 220.0 L 235.5 219.0 L 235.0 218.5 L 234.5 218.0 L 234.5 217.0 L 234.0 216.5 L 233.5 216.0 L 233.5 215.0 L 233.5 214.0 L 233.0 213.5 L 232.5 213.0 L 232.5 212.0 L 232.5 211.0 L 232.0 210.5 L 231.5 210.0 L 231.5 209.0 L 231.5 208.0 L 231.0 207.5 L 230.5 207.0 L 230.5 206.0 L 230.5 205.0 L 230.0 204.5 L 229.5 204.0 L 229.5 203.0 L 229.5 202.0 L 229.5 201.0 L 229.5 200.0 L 229.0 199.5 L 228.5 199.0 L 228.5 198.0 L 228.5 197.0 L 228.5 196.0 L 228.5 195.0 L 228.0 194.5 L 227.5 194.0 L 227.5 193.0 L 227.5 192.0 L 227.5 191.0 L 227.5 190.0 L 227.5 189.0 L 227.5 188.0 L 227.5 187.0 L 227.5 186.0 L 227.5 185.0 L 227.5 184.0 L 227.5 183.0 L 227.0 182.5 L 226.5 182.0 L 226.5 181.0 L 226.5 180.0 L 226.5 179.0 L 226.5 178.0 L 226.5 177.0 L 227.0 176.5 L 227.5 176.0 L 227.5 175.0 L 227.5 174.0 L 227.5 173.0 L 227.5 172.0 L 227.5 171.0 L 227.5 170.0 L 227.5 169.0 L 227.5 168.0 L 227.5 167.0 L 227.5 166.0 L 228.0 165.5 L 228.5 165.0 L 228.5 164.0 L 228.5 163.0 L 228.5 162.0 L 228.5 161.0 L 228.5 160.0 L 229.0 159.5 L 229.5 159.0 L 229.5 158.0 L 229.5 157.0 L 229.5 156.0 L 230.0 155.5 L 230.5 155.0 L 230.5 154.0 L 230.5 153.0 L 230.5 152.0 L 231.0 151.5 L 231.5 151.0 L 231.5 150.0 L 231.5 149.0 L 231.5 148.0 L 232.0 147.5 L 232.5 147.0 L 232.5 146.0 L 233.0 145.5 L 233.5 145.0 L 233.5 144.0 L 233.5 143.0 L 234.0 142.5 L 234.5 142.0 L 234.5 141.0 L 235.0 140.5 L 235.5 140.0 L 235.5 139.0 L 236.0 138.5 L 236.5 138.0 L 236.5 137.0 L 237.0 136.5 L 237.5 136.0 L 237.5 135.0 L 238.0 134.5 L 238.5 134.0 L 238.5 133.0 L 239.0 132.5 L 239.5 132.0 L 239.5 131.0 L 240.0 130.5 L 240.5 130.0 L 240.5 129.0 L 241.0 128.5 L 241.5 128.0 L 242.0 127.5 L 242.5 127.0 L 242.5 126.0 L 243.0 125.5 L 243.5 125.0 L 244.0 124.5 L 244.5 124.0 L 244.5 123.0 L 245.0 122.5 L 245.5 122.0 L 246.0 121.5 L 246.5 121.0 L 246.5 120.0 L 247.0 119.5 L 247.5 119.0 L 248.0 118.5 L 248.5 118.0 L 249.0 117.5 L 249.5 117.0 L 250.0 116.5 L 250.5 116.0 L 250.5 115.0 L 251.0 114.5 L 251.5 114.0 L 252.0 113.5 L 252.5 113.0 L 253.0 112.5 L 253.5 112.0 L 254.0 111.5 L 254.5 111.0 L 255.0 110.5 L 255.5 110.0 L 256.0 109.5 L 256.5 109.0 L 257.0 108.5 L 257.5 108.0 L 258.0 107.5 L 258.5 107.0 L 259.0 106.5 L 259.5 106.0 L 260.0 105.5 L 260.5 105.0 L 261.0 104.5 L 262.0 104.5 L 262.5 104.0 L 263.0 103.5 L 263.5 103.0 L 264.0 102.5 L 264.5 102.0 L 265.0 101.5 L 265.5 101.0 L 266.0 100.5 L 267.0 100.5 L 267.5 100.0 L 268.0 99.5 L 268.5 99.0 L 269.0 98.5 L 270.0 98.5 L 270.5 98.0 L 271.0 97.5 L 271.5 97.0 L 272.0 96.5 L 273.0 96.5 L 273.5 96.0 L 274.0 95.5 L 274.5 95.0 L 275.0 94.5 L 276.0 94.5 L 276.5 94.0 L 277.0 93.5 L 278.0 93.5 L 278.5 93.0 L 279.0 92.5 L 280.0 92.5 L 280.5 92.0 L 281.0 91.5 L 282.0 91.5 L 282.5 91.0 L 283.0 90.5 L 284.0 90.5 L 284.5 90.0 L 285.0 89.5 L 286.0 89.5 L 286.5 89.0 L 287.0 88.5 L 288.0 88.5 L 289.0 88.5 L 289.5 88.0 L 290.0 87.5 L 291.0 87.5 L 291.5 87.0 L 292.0 86.5 L 293.0 86.5 L 294.0 86.5 L 294.5 86.0 L 295.0 85.5 L 296.0 85.5 L 297.0 85.5 L 298.0 85.5 L 298.5 85.0 L 299.0 84.5 L 300.0 84.5 L 301.0 84.5 L 301.5 84.0 L 302.0 83.5 L 303.0 83.5 L 304.0 83.5 L 305.0 83.5 L 306.0 83.5 L 306.5 83.0 L 307.0 82.5 L 308.0 82.5 L 309.0 82.5 L 310.0 82.5 L 311.0 82.5 L 312.0 82.5 L 312.5 82.0 L 313.0 81.5 Z M 770.0 81.5 L 771.0 81.5 L 772.0 81.5 L 773.0 81.5 L 774.0 81.5 L 775.0 81.5 L 776.0 81.5 L 777.0 81.5 L 778.0 81.5 L 779.0 81.5 L 780.0 81.5 L 781.0 81.5 L 782.0 81.5 L 783.0 81.5 L 784.0 81.5 L 785.0 81.5 L 786.0 81.5 L 787.0 81.5 L 788.0 81.5 L 789.0 81.5 L 790.0 81.5 L 791.0 81.5 L 792.0 81.5 L 793.0 81.5 L 794.0 81.5 L 795.0 81.5 L 796.0 81.5 L 797.0 81.5 L 797.5 82.0 L 798.0 82.5 L 799.0 82.5 L 800.0 82.5 L 801.0 82.5 L 802.0 82.5 L 803.0 82.5 L 803.5 83.0 L 804.0 83.5 L 805.0 83.5 L 806.0 83.5 L 807.0 83.5 L 807.5 84.0 L 808.0 84.5 L 809.0 84.5 L 810.0 84.5 L 811.0 84.5 L 811.5 85.0 L 812.0 85.5 L 813.0 85.5 L 814.0 85.5 L 814.5 86.0 L 815.0 86.5 L 816.0 86.5 L 817.0 86.5 L 817.5 87.0 L 818.0 87.5 L 819.0 87.5 L 819.5 88.0 L 820.0 88.5 L 821.0 88.5 L 822.0 88.5 L 822.5 89.0 L 823.0 89.5 L 824.0 89.5 L 824.5 90.0 L 825.0 90.5 L 826.0 90.5 L 826.5 91.0 L 827.0 91.5 L 828.0 91.5 L 828.5 92.0 L 829.0 92.5 L 830.0 92.5 L 830.5 93.0 L 831.0 93.5 L 831.5 94.0 L 832.0 94.5 L 833.0 94.5 L 833.5 95.0 L 834.0 95.5 L 835.0 95.5 L 835.5 96.0 L 836.0 96.5 L 836.5 97.0 L 837.0 97.5 L 838.0 97.5 L 838.5 98.0 L 839.0 98.5 L 839.5 99.0 L 840.0 99.5 L 840.5 100.0 L 841.0 100.5 L 842.0 100.5 L 842.5 101.0 L 843.0 101.5 L 843.5 102.0 L 844.0 102.5 L 844.5 103.0 L 845.0 103.5 L 846.0 103.5 L 846.5 104.0 L 847.0 104.5 L 847.5 105.0 L 848.0 105.5 L 848.5 106.0 L 849.0 106.5 L 849.5 107.0 L 850.0 107.5 L 850.5 108.0 L 851.0 108.5 L 851.5 109.0 L 852.0 109.5 L 852.5 110.0 L 853.0 110.5 L 853.5 111.0 L 854.0 111.5 L 854.5 112.0 L 855.0 112.5 L 855.5 113.0 L 856.0 113.5 L 856.5 114.0 L 857.0 114.5 L 857.5 115.0 L 857.5 116.0 L 858.0 116.5 L 858.5 117.0 L 859.0 117.5 L 859.5 118.0 L 860.0 118.5 L 860.5 119.0 L 861.0 119.5 L 861.5 120.0 L 861.5 121.0 L 862.0 121.5 L 862.5 122.0 L 863.0 122.5 L 863.5 123.0 L 863.5 124.0 L 864.0 124.5 L 864.5 125.0 L 865.0 125.5 L 865.5 126.0 L 865.5 127.0 L 866.0 127.5 L 866.5 128.0 L 866.5 129.0 L 867.0 129.5 L 867.5 130.0 L 868.0 130.5 L 868.5 131.0 L 868.5 132.0 L 869.0 132.5 L 869.5 133.0 L 869.5 134.0 L 870.0 134.5 L 870.5 135.0 L 870.5 136.0 L 871.0 136.5 L 871.5 137.0 L 871.5 138.0 L 871.5 139.0 L 872.0 139.5 L 872.5 140.0 L 872.5 141.0 L 873.0 141.5 L 873.5 142.0 L 873.5 143.0 L 873.5 144.0 L 874.0 144.5 L 874.5 145.0 L 874.5 146.0 L 874.5 147.0 L 875.0 147.5 L 875.5 148.0 L 875.5 149.0 L 875.5 150.0 L 876.0 150.5 L 876.5 151.0 L 876.5 152.0 L 876.5 153.0 L 876.5 154.0 L 877.0 154.5 L 877.5 155.0 L 877.5 156.0 L 877.5 157.0 L 877.5 158.0 L 877.5 159.0 L 878.0 159.5 L 878.5 160.0 L 878.5 161.0 L 878.5 162.0 L 878.5 163.0 L 878.5 164.0 L 878.5 165.0 L 878.5 166.0 L 878.5 167.0 L 879.0 167.5 L 879.5 168.0 L 879.5 169.0 L 879.5 170.0 L 879.5 171.0 L 879.5 172.0 L 879.5 173.0 L 879.5 174.0 L 879.5 175.0 L 879.5 176.0 L 879.5 177.0 L 879.5 178.0 L 879.5 179.0 L 879.5 180.0 L 879.5 181.0 L 879.5 182.0 L 879.5 183.0 L 879.5 184.0 L 879.5 185.0 L 879.5 186.0 L 879.5 187.0 L 879.5 188.0 L 879.5 189.0 L 879.5 190.0 L 879.5 191.0 L 879.5 192.0 L 879.5 193.0 L 879.5 194.0 L 879.5 195.0 L 879.5 196.0 L 879.5 197.0 L 879.5 198.0 L 879.5 199.0 L 879.5 200.0 L 879.5 201.0 L 879.5 202.0 L 879.5 203.0 L 879.5 204.0 L 879.5 205.0 L 879.5 206.0 L 879.5 207.0 L 879.5 208.0 L 879.5 209.0 L 879.5 210.0 L 879.5 211.0 L 879.5 212.0 L 879.5 213.0 L 879.5 214.0 L 879.5 215.0 L 879.5 216.0 L 879.5 217.0 L 879.5 218.0 L 879.5 219.0 L 879.5 220.0 L 879.5 221.0 L 879.5 222.0 L 879.5 223.0 L 879.5 224.0 L 879.5 225.0 L 879.5 226.0 L 879.5 227.0 L 879.5 228.0 L 879.5 229.0 L 879.5 230.0 L 879.5 231.0 L 879.5 232.0 L 879.5 233.0 L 879.5 234.0 L 879.5 235.0 L 879.5 236.0 L 879.5 237.0 L 879.5 238.0 L 879.5 239.0 L 879.5 240.0 L 879.5 241.0 L 879.5 242.0 L 879.5 243.0 L 879.5 244.0 L 879.5 245.0 L 879.5 246.0 L 879.5 247.0 L 879.5 248.0 L 879.5 249.0 L 879.5 250.0 L 879.5 251.0 L 879.5 252.0 L 879.5 253.0 L 879.5 254.0 L 879.5 255.0 L 879.5 256.0 L 879.5 257.0 L 879.5 258.0 L 879.5 259.0 L 879.5 260.0 L 879.5 261.0 L 879.0 261.5 L 878.5 262.0 L 878.5 263.0 L 878.5 264.0 L 878.5 265.0 L 878.0 265.5 L 877.5 266.0 L 877.5 267.0 L 877.0 267.5 L 876.5 268.0 L 876.0 268.5 L 875.5 269.0 L 875.0 269.5 L 874.5 270.0 L 874.5 271.0 L 874.0 271.5 L 873.0 271.5 L 872.5 272.0 L 872.0 272.5 L 871.5 273.0 L 871.0 273.5 L 870.5 274.0 L 870.0 274.5 L 869.0 274.5 L 868.5 275.0 L 868.0 275.5 L 867.0 275.5 L 866.0 275.5 L 865.0 275.5 L 864.5 276.0 L 864.0 276.5 L 863.0 276.5 L 862.0 276.5 L 861.0 276.5 L 860.0 276.5 L 859.0 276.5 L 858.0 276.5 L 857.5 276.0 L 857.0 275.5 L 856.0 275.5 L 855.0 275.5 L 854.0 275.5 L 853.5 275.0 L 853.0 274.5 L 852.0 274.5 L 851.5 274.0 L 851.0 273.5 L 850.0 273.5 L 849.5 273.0 L 849.0 272.5 L 848.5 272.0 L 848.0 271.5 L 847.5 271.0 L 847.0 270.5 L 846.5 270.0 L 846.5 269.0 L 846.0 268.5 L 845.5 268.0 L 845.0 267.5 L 844.5 267.0 L 844.5 266.0 L 844.0 265.5 L 843.5 265.0 L 843.5 264.0 L 843.5 263.0 L 843.0 262.5 L 842.5 262.0 L 842.5 261.0 L 842.5 260.0 L 842.5 259.0 L 842.5 258.0 L 842.5 257.0 L 842.5 256.0 L 842.5 255.0 L 842.5 254.0 L 842.5 253.0 L 842.0 252.5 L 841.5 253.0 L 841.0 253.5 L 840.5 254.0 L 840.0 254.5 L 839.5 255.0 L 839.0 255.5 L 838.0 255.5 L 837.5 256.0 L 837.0 256.5 L 836.5 257.0 L 836.0 257.5 L 835.5 258.0 L 835.0 258.5 L 834.5 259.0 L 834.0 259.5 L 833.0 259.5 L 832.5 260.0 L 832.0 260.5 L 831.5 261.0 L 831.0 261.5 L 830.0 261.5 L 829.5 262.0 L 829.0 262.5 L 828.0 262.5 L 827.5 263.0 L 827.0 263.5 L 826.5 264.0 L 826.0 264.5 L 825.0 264.5 L 824.5 265.0 L 824.0 265.5 L 823.0 265.5 L 822.5 266.0 L 822.0 266.5 L 821.0 266.5 L 820.5 267.0 L 820.0 267.5 L 819.0 267.5 L 818.5 268.0 L 818.0 268.5 L 817.0 268.5 L 816.0 268.5 L 815.5 269.0 L 815.0 269.5 L 814.0 269.5 L 813.0 269.5 L 812.5 270.0 L 812.0 270.5 L 811.0 270.5 L 810.0 270.5 L 809.5 271.0 L 809.0 271.5 L 808.0 271.5 L 807.0 271.5 L 806.5 272.0 L 806.0 272.5 L 805.0 272.5 L 804.0 272.5 L 803.0 272.5 L 802.5 273.0 L 802.0 273.5 L 801.0 273.5 L 800.0 273.5 L 799.0 273.5 L 798.0 273.5 L 797.5 274.0 L 797.0 274.5 L 796.0 274.5 L 795.0 274.5 L 794.0 274.5 L 793.0 274.5 L 792.0 274.5 L 791.0 274.5 L 790.0 274.5 L 789.0 274.5 L 788.5 275.0 L 788.0 275.5 L 787.0 275.5 L 786.0 275.5 L 785.0 275.5 L 784.0 275.5 L 783.0 275.5 L 782.0 275.5 L 781.0 275.5 L 780.0 275.5 L 779.0 275.5 L 778.0 275.5 L 777.0 275.5 L 776.0 275.5 L 775.0 275.5 L 774.0 275.5 L 773.5 275.0 L 773.0 274.5 L 772.0 274.5 L 771.0 274.5 L 770.0 274.5 L 769.0 274.5 L 768.0 274.5 L 767.0 274.5 L 766.0 274.5 L 765.0 274.5 L 764.5 274.0 L 764.0 273.5 L 763.0 273.5 L 762.0 273.5 L 761.0 273.5 L 760.0 273.5 L 759.5 273.0 L 759.0 272.5 L 758.0 272.5 L 757.0 272.5 L 756.0 272.5 L 755.5 272.0 L 755.0 271.5 L 754.0 271.5 L 753.0 271.5 L 752.0 271.5 L 751.5 271.0 L 751.0 270.5 L 750.0 270.5 L 749.0 270.5 L 748.5 270.0 L 748.0 269.5 L 747.0 269.5 L 746.0 269.5 L 745.5 269.0 L 745.0 268.5 L 744.0 268.5 L 743.5 268.0 L 743.0 267.5 L 742.0 267.5 L 741.5 267.0 L 741.0 266.5 L 740.0 266.5 L 739.5 266.0 L 739.0 265.5 L 738.0 265.5 L 737.0 265.5 L 736.5 265.0 L 736.0 264.5 L 735.5 264.0 L 735.0 263.5 L 734.0 263.5 L 733.5 263.0 L 733.0 262.5 L 732.0 262.5 L 731.5 262.0 L 731.0 261.5 L 730.0 261.5 L 729.5 261.0 L 729.0 260.5 L 728.5 260.0 L 728.0 259.5 L 727.0 259.5 L 726.5 259.0 L 726.0 258.5 L 725.5 258.0 L 725.0 257.5 L 724.0 257.5 L 723.5 257.0 L 723.0 256.5 L 722.5 256.0 L 722.0 255.5 L 721.5 255.0 L 721.0 254.5 L 720.0 254.5 L 719.5 254.0 L 719.0 253.5 L 718.5 253.0 L 718.0 252.5 L 717.5 252.0 L 717.0 251.5 L 716.5 251.0 L 716.0 250.5 L 715.0 250.5 L 714.5 250.0 L 714.0 249.5 L 713.5 249.0 L 713.0 248.5 L 712.5 248.0 L 712.0 247.5 L 711.5 247.0 L 711.0 246.5 L 710.5 246.0 L 710.0 245.5 L 709.5 245.0 L 709.0 244.5 L 708.5 244.0 L 708.5 243.0 L 708.0 242.5 L 707.5 242.0 L 707.0 241.5 L 706.5 241.0 L 706.0 240.5 L 705.5 240.0 L 705.0 239.5 L 704.5 239.0 L 704.0 238.5 L 703.5 238.0 L 703.5 237.0 L 703.0 236.5 L 702.5 236.0 L 702.0 235.5 L 701.5 235.0 L 701.0 234.5 L 700.5 234.0 L 700.5 233.0 L 700.0 232.5 L 699.5 232.0 L 699.0 231.5 L 698.5 231.0 L 698.5 230.0 L 698.0 229.5 L 697.5 229.0 L 697.5 228.0 L 697.0 227.5 L 696.5 227.0 L 696.0 226.5 L 695.5 226.0 L 695.5 225.0 L 695.0 224.5 L 694.5 224.0 L 694.5 223.0 L 694.0 222.5 L 693.5 222.0 L 693.5 221.0 L 693.0 220.5 L 692.5 220.0 L 692.5 219.0 L 692.0 218.5 L 691.5 218.0 L 691.5 217.0 L 691.0 216.5 L 690.5 216.0 L 690.5 215.0 L 690.5 214.0 L 690.0 213.5 L 689.5 213.0 L 689.5 212.0 L 689.5 211.0 L 689.0 210.5 L 688.5 210.0 L 688.5 209.0 L 688.5 208.0 L 688.0 207.5 L 687.5 207.0 L 687.5 206.0 L 687.5 205.0 L 687.0 204.5 L 686.5 204.0 L 686.5 203.0 L 686.5 202.0 L 686.5 201.0 L 686.0 200.5 L 685.5 200.0 L 685.5 199.0 L 685.5 198.0 L 685.5 197.0 L 685.5 196.0 L 685.5 195.0 L 685.0 194.5 L 684.5 194.0 L 684.5 193.0 L 684.5 192.0 L 684.5 191.0 L 684.5 190.0 L 684.5 189.0 L 684.5 188.0 L 684.5 187.0 L 684.5 186.0 L 684.0 185.5 L 683.5 185.0 L 683.5 184.0 L 683.5 183.0 L 683.5 182.0 L 683.5 181.0 L 683.5 180.0 L 683.5 179.0 L 683.5 178.0 L 683.5 177.0 L 683.5 176.0 L 683.5 175.0 L 683.5 174.0 L 684.0 173.5 L 684.5 173.0 L 684.5 172.0 L 684.5 171.0 L 684.5 170.0 L 684.5 169.0 L 684.5 168.0 L 684.5 167.0 L 684.5 166.0 L 684.5 165.0 L 684.5 164.0 L 685.0 163.5 L 685.5 163.0 L 685.5 162.0 L 685.5 161.0 L 685.5 160.0 L 685.5 159.0 L 686.0 158.5 L 686.5 158.0 L 686.5 157.0 L 686.5 156.0 L 686.5 155.0 L 686.5 154.0 L 687.0 153.5 L 687.5 153.0 L 687.5 152.0 L 687.5 151.0 L 688.0 150.5 L 688.5 150.0 L 688.5 149.0 L 688.5 148.0 L 689.0 147.5 L 689.5 147.0 L 689.5 146.0 L 689.5 145.0 L 690.0 144.5 L 690.5 144.0 L 690.5 143.0 L 691.0 142.5 L 691.5 142.0 L 691.5 141.0 L 691.5 140.0 L 692.0 139.5 L 692.5 139.0 L 692.5 138.0 L 693.0 137.5 L 693.5 137.0 L 693.5 136.0 L 694.0 135.5 L 694.5 135.0 L 694.5 134.0 L 695.0 133.5 L 695.5 133.0 L 695.5 132.0 L 696.0 131.5 L 696.5 131.0 L 697.0 130.5 L 697.5 130.0 L 697.5 129.0 L 698.0 128.5 L 698.5 128.0 L 698.5 127.0 L 699.0 126.5 L 699.5 126.0 L 700.0 125.5 L 700.5 125.0 L 700.5 124.0 L 701.0 123.5 L 701.5 123.0 L 702.0 122.5 L 702.5 122.0 L 703.0 121.5 L 703.5 121.0 L 703.5 120.0 L 704.0 119.5 L 704.5 119.0 L 705.0 118.5 L 705.5 118.0 L 706.0 117.5 L 706.5 117.0 L 706.5 116.0 L 707.0 115.5 L 707.5 115.0 L 708.0 114.5 L 708.5 114.0 L 709.0 113.5 L 709.5 113.0 L 710.0 112.5 L 710.5 112.0 L 711.0 111.5 L 711.5 111.0 L 712.0 110.5 L 712.5 110.0 L 713.0 109.5 L 713.5 109.0 L 714.0 108.5 L 714.5 108.0 L 715.0 107.5 L 715.5 107.0 L 716.0 106.5 L 716.5 106.0 L 717.0 105.5 L 717.5 105.0 L 718.0 104.5 L 719.0 104.5 L 719.5 104.0 L 720.0 103.5 L 720.5 103.0 L 721.0 102.5 L 721.5 102.0 L 722.0 101.5 L 722.5 101.0 L 723.0 100.5 L 724.0 100.5 L 724.5 100.0 L 725.0 99.5 L 725.5 99.0 L 726.0 98.5 L 726.5 98.0 L 727.0 97.5 L 728.0 97.5 L 728.5 97.0 L 729.0 96.5 L 730.0 96.5 L 730.5 96.0 L 731.0 95.5 L 731.5 95.0 L 732.0 94.5 L 733.0 94.5 L 733.5 94.0 L 734.0 93.5 L 735.0 93.5 L 735.5 93.0 L 736.0 92.5 L 737.0 92.5 L 737.5 92.0 L 738.0 91.5 L 739.0 91.5 L 739.5 91.0 L 740.0 90.5 L 741.0 90.5 L 741.5 90.0 L 742.0 89.5 L 743.0 89.5 L 743.5 89.0 L 744.0 88.5 L 745.0 88.5 L 746.0 88.5 L 746.5 88.0 L 747.0 87.5 L 748.0 87.5 L 748.5 87.0 L 749.0 86.5 L 750.0 86.5 L 751.0 86.5 L 751.5 86.0 L 752.0 85.5 L 753.0 85.5 L 754.0 85.5 L 754.5 85.0 L 755.0 84.5 L 756.0 84.5 L 757.0 84.5 L 758.0 84.5 L 758.5 84.0 L 759.0 83.5 L 760.0 83.5 L 761.0 83.5 L 762.0 83.5 L 762.5 83.0 L 763.0 82.5 L 764.0 82.5 L 765.0 82.5 L 766.0 82.5 L 767.0 82.5 L 768.0 82.5 L 769.0 82.5 L 769.5 82.0 L 770.0 81.5 Z M 92.0 117.5 L 91.5 118.0 L 91.0 118.5 L 90.0 118.5 L 89.0 118.5 L 88.0 118.5 L 87.0 118.5 L 86.5 119.0 L 86.0 119.5 L 85.0 119.5 L 84.0 119.5 L 83.0 119.5 L 82.5 120.0 L 82.0 120.5 L 81.0 120.5 L 80.0 120.5 L 79.5 121.0 L 79.0 121.5 L 78.0 121.5 L 77.5 122.0 L 77.0 122.5 L 76.0 122.5 L 75.5 123.0 L 75.0 123.5 L 74.0 123.5 L 73.5 124.0 L 73.0 124.5 L 72.0 124.5 L 71.5 125.0 L 71.0 125.5 L 70.0 125.5 L 69.5 126.0 L 69.0 126.5 L 68.0 126.5 L 67.5 127.0 L 67.0 127.5 L 66.5 128.0 L 66.0 128.5 L 65.0 128.5 L 64.5 129.0 L 64.0 129.5 L 63.5 130.0 L 63.0 130.5 L 62.5 131.0 L 62.0 131.5 L 61.0 131.5 L 60.5 132.0 L 60.0 132.5 L 59.5 133.0 L 59.0 133.5 L 58.5 134.0 L 58.0 134.5 L 57.5 135.0 L 57.0 135.5 L 56.5 136.0 L 56.0 136.5 L 55.5 137.0 L 55.0 137.5 L 54.5 138.0 L 54.0 138.5 L 53.5 139.0 L 53.5 140.0 L 53.0 140.5 L 52.5 141.0 L 52.0 141.5 L 51.5 142.0 L 51.0 142.5 L 50.5 143.0 L 50.5 144.0 L 50.0 144.5 L 49.5 145.0 L 49.0 145.5 L 48.5 146.0 L 48.5 147.0 L 48.0 147.5 L 47.5 148.0 L 47.0 148.5 L 46.5 149.0 L 46.5 150.0 L 46.0 150.5 L 45.5 151.0 L 45.5 152.0 L 45.0 152.5 L 44.5 153.0 L 44.5 154.0 L 44.5 155.0 L 44.0 155.5 L 43.5 156.0 L 43.5 157.0 L 43.0 157.5 L 42.5 158.0 L 42.5 159.0 L 42.5 160.0 L 42.0 160.5 L 41.5 161.0 L 41.5 162.0 L 41.5 163.0 L 41.5 164.0 L 41.0 164.5 L 40.5 165.0 L 40.5 166.0 L 40.5 167.0 L 40.5 168.0 L 40.5 169.0 L 40.0 169.5 L 39.5 170.0 L 39.5 171.0 L 39.5 172.0 L 39.5 173.0 L 39.5 174.0 L 39.5 175.0 L 39.5 176.0 L 39.5 177.0 L 39.5 178.0 L 39.5 179.0 L 39.5 180.0 L 39.5 181.0 L 39.5 182.0 L 39.5 183.0 L 39.5 184.0 L 39.5 185.0 L 39.5 186.0 L 39.5 187.0 L 39.5 188.0 L 40.0 188.5 L 40.5 189.0 L 40.5 190.0 L 40.5 191.0 L 40.5 192.0 L 40.5 193.0 L 41.0 193.5 L 41.5 194.0 L 41.5 195.0 L 41.5 196.0 L 42.0 196.5 L 42.5 197.0 L 42.5 198.0 L 42.5 199.0 L 43.0 199.5 L 43.5 200.0 L 43.5 201.0 L 43.5 202.0 L 44.0 202.5 L 44.5 203.0 L 44.5 204.0 L 45.0 204.5 L 45.5 205.0 L 45.5 206.0 L 46.0 206.5 L 46.5 207.0 L 46.5 208.0 L 47.0 208.5 L 47.5 209.0 L 47.5 210.0 L 48.0 210.5 L 48.5 211.0 L 49.0 211.5 L 49.5 212.0 L 49.5 213.0 L 50.0 213.5 L 50.5 214.0 L 51.0 214.5 L 51.5 215.0 L 52.0 215.5 L 52.5 216.0 L 52.5 217.0 L 53.0 217.5 L 53.5 218.0 L 54.0 218.5 L 54.5 219.0 L 55.0 219.5 L 55.5 220.0 L 56.0 220.5 L 56.5 221.0 L 57.0 221.5 L 57.5 222.0 L 58.0 222.5 L 58.5 223.0 L 59.0 223.5 L 59.5 224.0 L 60.0 224.5 L 60.5 225.0 L 61.0 225.5 L 62.0 225.5 L 62.5 226.0 L 63.0 226.5 L 63.5 227.0 L 64.0 227.5 L 64.5 228.0 L 65.0 228.5 L 66.0 228.5 L 66.5 229.0 L 67.0 229.5 L 68.0 229.5 L 68.5 230.0 L 69.0 230.5 L 69.5 231.0 L 70.0 231.5 L 71.0 231.5 L 71.5 232.0 L 72.0 232.5 L 73.0 232.5 L 73.5 233.0 L 74.0 233.5 L 75.0 233.5 L 75.5 234.0 L 76.0 234.5 L 77.0 234.5 L 77.5 235.0 L 78.0 235.5 L 79.0 235.5 L 80.0 235.5 L 80.5 236.0 L 81.0 236.5 L 82.0 236.5 L 83.0 236.5 L 84.0 236.5 L 84.5 237.0 L 85.0 237.5 L 86.0 237.5 L 87.0 237.5 L 88.0 237.5 L 88.5 238.0 L 89.0 238.5 L 90.0 238.5 L 91.0 238.5 L 92.0 238.5 L 93.0 238.5 L 94.0 238.5 L 94.5 239.0 L 95.0 239.5 L 96.0 239.5 L 97.0 239.5 L 98.0 239.5 L 99.0 239.5 L 100.0 239.5 L 101.0 239.5 L 102.0 239.5 L 103.0 239.5 L 104.0 239.5 L 105.0 239.5 L 106.0 239.5 L 106.5 239.0 L 107.0 238.5 L 108.0 238.5 L 109.0 238.5 L 110.0 238.5 L 111.0 238.5 L 112.0 238.5 L 112.5 238.0 L 113.0 237.5 L 114.0 237.5 L 115.0 237.5 L 116.0 237.5 L 116.5 237.0 L 117.0 236.5 L 118.0 236.5 L 119.0 236.5 L 119.5 236.0 L 120.0 235.5 L 121.0 235.5 L 122.0 235.5 L 122.5 235.0 L 123.0 234.5 L 124.0 234.5 L 124.5 234.0 L 125.0 233.5 L 126.0 233.5 L 126.5 233.0 L 127.0 232.5 L 128.0 232.5 L 128.5 232.0 L 129.0 231.5 L 130.0 231.5 L 130.5 231.0 L 131.0 230.5 L 131.5 230.0 L 132.0 229.5 L 133.0 229.5 L 133.5 229.0 L 134.0 228.5 L 134.5 228.0 L 135.0 227.5 L 136.0 227.5 L 136.5 227.0 L 137.0 226.5 L 137.5 226.0 L 138.0 225.5 L 138.5 225.0 L 139.0 224.5 L 139.5 224.0 L 140.0 223.5 L 140.5 223.0 L 141.0 222.5 L 141.5 222.0 L 142.0 221.5 L 142.5 221.0 L 143.0 220.5 L 143.5 220.0 L 144.0 219.5 L 144.5 219.0 L 145.0 218.5 L 145.5 218.0 L 146.0 217.5 L 146.5 217.0 L 147.0 216.5 L 147.5 216.0 L 147.5 215.0 L 148.0 214.5 L 148.5 214.0 L 149.0 213.5 L 149.5 213.0 L 150.0 212.5 L 150.5 212.0 L 150.5 211.0 L 151.0 210.5 L 151.5 210.0 L 151.5 209.0 L 152.0 208.5 L 152.5 208.0 L 152.5 207.0 L 153.0 206.5 L 153.5 206.0 L 153.5 205.0 L 154.0 204.5 L 154.5 204.0 L 154.5 203.0 L 155.0 202.5 L 155.5 202.0 L 155.5 201.0 L 156.0 200.5 L 156.5 200.0 L 156.5 199.0 L 156.5 198.0 L 157.0 197.5 L 157.5 197.0 L 157.5 196.0 L 157.5 195.0 L 158.0 194.5 L 158.5 194.0 L 158.5 193.0 L 158.5 192.0 L 158.5 191.0 L 158.5 190.0 L 159.0 189.5 L 159.5 189.0 L 159.5 188.0 L 159.5 187.0 L 159.5 186.0 L 159.5 185.0 L 159.5 184.0 L 159.5 183.0 L 159.5 182.0 L 160.0 181.5 L 160.5 181.0 L 160.5 180.0 L 160.5 179.0 L 160.5 178.0 L 160.5 177.0 L 160.5 176.0 L 160.0 175.5 L 159.5 175.0 L 159.5 174.0 L 159.5 173.0 L 159.5 172.0 L 159.5 171.0 L 159.5 170.0 L 159.5 169.0 L 159.5 168.0 L 159.5 167.0 L 159.0 166.5 L 158.5 166.0 L 158.5 165.0 L 158.5 164.0 L 158.5 163.0 L 158.5 162.0 L 158.0 161.5 L 157.5 161.0 L 157.5 160.0 L 157.5 159.0 L 157.0 158.5 L 156.5 158.0 L 156.5 157.0 L 156.5 156.0 L 156.0 155.5 L 155.5 155.0 L 155.5 154.0 L 155.5 153.0 L 155.0 152.5 L 154.5 152.0 L 154.5 151.0 L 154.0 150.5 L 153.5 150.0 L 153.5 149.0 L 153.0 148.5 L 152.5 148.0 L 152.5 147.0 L 152.0 146.5 L 151.5 146.0 L 151.0 145.5 L 150.5 145.0 L 150.5 144.0 L 150.0 143.5 L 149.5 143.0 L 149.0 142.5 L 148.5 142.0 L 148.5 141.0 L 148.0 140.5 L 147.5 140.0 L 147.0 139.5 L 146.5 139.0 L 146.0 138.5 L 145.5 138.0 L 145.0 137.5 L 144.5 137.0 L 144.0 136.5 L 143.5 136.0 L 143.0 135.5 L 142.5 135.0 L 142.0 134.5 L 141.5 134.0 L 141.0 133.5 L 140.5 133.0 L 140.0 132.5 L 139.5 132.0 L 139.0 131.5 L 138.5 131.0 L 138.0 130.5 L 137.5 130.0 L 137.0 129.5 L 136.5 129.0 L 136.0 128.5 L 135.0 128.5 L 134.5 128.0 L 134.0 127.5 L 133.5 127.0 L 133.0 126.5 L 132.0 126.5 L 131.5 126.0 L 131.0 125.5 L 130.5 125.0 L 130.0 124.5 L 129.0 124.5 L 128.5 124.0 L 128.0 123.5 L 127.0 123.5 L 126.5 123.0 L 126.0 122.5 L 125.0 122.5 L 124.5 122.0 L 124.0 121.5 L 123.0 121.5 L 122.0 121.5 L 121.5 121.0 L 121.0 120.5 L 120.0 120.5 L 119.0 120.5 L 118.5 120.0 L 118.0 119.5 L 117.0 119.5 L 116.0 119.5 L 115.0 119.5 L 114.5 119.0 L 114.0 118.5 L 113.0 118.5 L 112.0 118.5 L 111.0 118.5 L 110.0 118.5 L 109.5 118.0 L 109.0 117.5 L 108.0 117.5 L 107.0 117.5 L 106.0 117.5 L 105.0 117.5 L 104.0 117.5 L 103.0 117.5 L 102.0 117.5 L 101.0 117.5 L 100.0 117.5 L 99.0 117.5 L 98.0 117.5 L 97.0 117.5 L 96.0 117.5 L 95.0 117.5 L 94.0 117.5 L 93.0 117.5 L 92.0 117.5 Z M 320.0 117.5 L 319.5 118.0 L 319.0 118.5 L 318.0 118.5 L 317.0 118.5 L 316.0 118.5 L 315.0 118.5 L 314.0 118.5 L 313.0 118.5 L 312.5 119.0 L 312.0 119.5 L 311.0 119.5 L 310.0 119.5 L 309.5 120.0 L 309.0 120.5 L 308.0 120.5 L 307.0 120.5 L 306.0 120.5 L 305.5 121.0 L 305.0 121.5 L 304.0 121.5 L 303.5 122.0 L 303.0 122.5 L 302.0 122.5 L 301.0 122.5 L 300.5 123.0 L 300.0 123.5 L 299.0 123.5 L 298.5 124.0 L 298.0 124.5 L 297.0 124.5 L 296.5 125.0 L 296.0 125.5 L 295.0 125.5 L 294.5 126.0 L 294.0 126.5 L 293.5 127.0 L 293.0 127.5 L 292.0 127.5 L 291.5 128.0 L 291.0 128.5 L 290.0 128.5 L 289.5 129.0 L 289.0 129.5 L 288.5 130.0 L 288.0 130.5 L 287.5 131.0 L 287.0 131.5 L 286.5 132.0 L 286.0 132.5 L 285.0 132.5 L 284.5 133.0 L 284.0 133.5 L 283.5 134.0 L 283.0 134.5 L 282.5 135.0 L 282.0 135.5 L 281.5 136.0 L 281.0 136.5 L 280.5 137.0 L 280.0 137.5 L 279.5 138.0 L 279.0 138.5 L 278.5 139.0 L 278.5 140.0 L 278.0 140.5 L 277.5 141.0 L 277.0 141.5 L 276.5 142.0 L 276.0 142.5 L 275.5 143.0 L 275.5 144.0 L 275.0 144.5 L 274.5 145.0 L 274.0 145.5 L 273.5 146.0 L 273.5 147.0 L 273.0 147.5 L 272.5 148.0 L 272.0 148.5 L 271.5 149.0 L 271.5 150.0 L 271.0 150.5 L 270.5 151.0 L 270.5 152.0 L 270.0 152.5 L 269.5 153.0 L 269.5 154.0 L 269.0 154.5 L 268.5 155.0 L 268.5 156.0 L 268.5 157.0 L 268.0 157.5 L 267.5 158.0 L 267.5 159.0 L 267.5 160.0 L 267.0 160.5 L 266.5 161.0 L 266.5 162.0 L 266.5 163.0 L 266.0 163.5 L 265.5 164.0 L 265.5 165.0 L 265.5 166.0 L 265.5 167.0 L 265.5 168.0 L 265.0 168.5 L 264.5 169.0 L 264.5 170.0 L 264.5 171.0 L 264.5 172.0 L 264.5 173.0 L 264.5 174.0 L 264.5 175.0 L 264.5 176.0 L 264.5 177.0 L 264.5 178.0 L 264.5 179.0 L 264.5 180.0 L 264.5 181.0 L 264.5 182.0 L 264.5 183.0 L 264.5 184.0 L 264.5 185.0 L 264.5 186.0 L 264.5 187.0 L 264.5 188.0 L 265.0 188.5 L 265.5 189.0 L 265.5 190.0 L 265.5 191.0 L 265.5 192.0 L 265.5 193.0 L 266.0 193.5 L 266.5 194.0 L 266.5 195.0 L 266.5 196.0 L 266.5 197.0 L 267.0 197.5 L 267.5 198.0 L 267.5 199.0 L 268.0 199.5 L 268.5 200.0 L 268.5 201.0 L 268.5 202.0 L 269.0 202.5 L 269.5 203.0 L 269.5 204.0 L 270.0 204.5 L 270.5 205.0 L 270.5 206.0 L 271.0 206.5 L 271.5 207.0 L 271.5 208.0 L 272.0 208.5 L 272.5 209.0 L 272.5 210.0 L 273.0 210.5 L 273.5 211.0 L 274.0 211.5 L 274.5 212.0 L 274.5 213.0 L 275.0 213.5 L 275.5 214.0 L 276.0 214.5 L 276.5 215.0 L 277.0 215.5 L 277.5 216.0 L 277.5 217.0 L 278.0 217.5 L 278.5 218.0 L 279.0 218.5 L 279.5 219.0 L 280.0 219.5 L 280.5 220.0 L 281.0 220.5 L 281.5 221.0 L 282.0 221.5 L 282.5 222.0 L 283.0 222.5 L 283.5 223.0 L 284.0 223.5 L 284.5 224.0 L 285.0 224.5 L 285.5 225.0 L 286.0 225.5 L 287.0 225.5 L 287.5 226.0 L 288.0 226.5 L 288.5 227.0 L 289.0 227.5 L 289.5 228.0 L 290.0 228.5 L 291.0 228.5 L 291.5 229.0 L 292.0 229.5 L 293.0 229.5 L 293.5 230.0 L 294.0 230.5 L 294.5 231.0 L 295.0 231.5 L 296.0 231.5 L 296.5 232.0 L 297.0 232.5 L 298.0 232.5 L 298.5 233.0 L 299.0 233.5 L 300.0 233.5 L 300.5 234.0 L 301.0 234.5 L 302.0 234.5 L 303.0 234.5 L 303.5 235.0 L 304.0 235.5 L 305.0 235.5 L 306.0 235.5 L 306.5 236.0 L 307.0 236.5 L 308.0 236.5 L 309.0 236.5 L 309.5 237.0 L 310.0 237.5 L 311.0 237.5 L 312.0 237.5 L 313.0 237.5 L 313.5 238.0 L 314.0 238.5 L 315.0 238.5 L 316.0 238.5 L 317.0 238.5 L 318.0 238.5 L 319.0 238.5 L 320.0 238.5 L 321.0 238.5 L 321.5 239.0 L 322.0 239.5 L 323.0 239.5 L 324.0 239.5 L 325.0 239.5 L 326.0 239.5 L 327.0 239.5 L 327.5 239.0 L 328.0 238.5 L 329.0 238.5 L 330.0 238.5 L 331.0 238.5 L 332.0 238.5 L 333.0 238.5 L 334.0 238.5 L 335.0 238.5 L 335.5 238.0 L 336.0 237.5 L 337.0 237.5 L 338.0 237.5 L 339.0 237.5 L 340.0 237.5 L 340.5 237.0 L 341.0 236.5 L 342.0 236.5 L 343.0 236.5 L 343.5 236.0 L 344.0 235.5 L 345.0 235.5 L 346.0 235.5 L 346.5 235.0 L 347.0 234.5 L 348.0 234.5 L 348.5 234.0 L 349.0 233.5 L 350.0 233.5 L 351.0 233.5 L 351.5 233.0 L 352.0 232.5 L 353.0 232.5 L 353.5 232.0 L 354.0 231.5 L 354.5 231.0 L 355.0 230.5 L 356.0 230.5 L 356.5 230.0 L 357.0 229.5 L 357.5 229.0 L 358.0 228.5 L 359.0 228.5 L 359.5 228.0 L 360.0 227.5 L 360.5 227.0 L 361.0 226.5 L 362.0 226.5 L 362.5 226.0 L 363.0 225.5 L 363.5 225.0 L 364.0 224.5 L 364.5 224.0 L 365.0 223.5 L 365.5 223.0 L 366.0 222.5 L 366.5 222.0 L 367.0 221.5 L 367.5 221.0 L 368.0 220.5 L 368.5 220.0 L 369.0 219.5 L 369.5 219.0 L 370.0 218.5 L 370.5 218.0 L 371.0 217.5 L 371.5 217.0 L 372.0 216.5 L 372.5 216.0 L 372.5 215.0 L 373.0 214.5 L 373.5 214.0 L 374.0 213.5 L 374.5 213.0 L 374.5 212.0 L 375.0 211.5 L 375.5 211.0 L 376.0 210.5 L 376.5 210.0 L 376.5 209.0 L 377.0 208.5 L 377.5 208.0 L 378.0 207.5 L 378.5 207.0 L 378.5 206.0 L 379.0 205.5 L 379.5 205.0 L 379.5 204.0 L 379.5 203.0 L 380.0 202.5 L 380.5 202.0 L 380.5 201.0 L 381.0 200.5 L 381.5 200.0 L 381.5 199.0 L 381.5 198.0 L 382.0 197.5 L 382.5 197.0 L 382.5 196.0 L 382.5 195.0 L 383.0 194.5 L 383.5 194.0 L 383.5 193.0 L 383.5 192.0 L 383.5 191.0 L 383.5 190.0 L 384.0 189.5 L 384.5 189.0 L 384.5 188.0 L 384.5 187.0 L 384.5 186.0 L 384.5 185.0 L 384.5 184.0 L 385.0 183.5 L 385.5 183.0 L 385.5 182.0 L 385.5 181.0 L 385.5 180.0 L 385.5 179.0 L 385.5 178.0 L 385.5 177.0 L 385.5 176.0 L 385.5 175.0 L 385.0 174.5 L 384.5 174.0 L 384.5 173.0 L 384.5 172.0 L 384.5 171.0 L 384.5 170.0 L 384.5 169.0 L 384.5 168.0 L 384.5 167.0 L 384.0 166.5 L 383.5 166.0 L 383.5 165.0 L 383.5 164.0 L 383.5 163.0 L 383.0 162.5 L 382.5 162.0 L 382.5 161.0 L 382.5 160.0 L 382.5 159.0 L 382.0 158.5 L 381.5 158.0 L 381.5 157.0 L 381.0 156.5 L 380.5 156.0 L 380.5 155.0 L 380.5 154.0 L 380.0 153.5 L 379.5 153.0 L 379.5 152.0 L 379.0 151.5 L 378.5 151.0 L 378.5 150.0 L 378.0 149.5 L 377.5 149.0 L 377.5 148.0 L 377.0 147.5 L 376.5 147.0 L 376.0 146.5 L 375.5 146.0 L 375.5 145.0 L 375.0 144.5 L 374.5 144.0 L 374.0 143.5 L 373.5 143.0 L 373.5 142.0 L 373.0 141.5 L 372.5 141.0 L 372.0 140.5 L 371.5 140.0 L 371.0 139.5 L 370.5 139.0 L 370.0 138.5 L 369.5 138.0 L 369.0 137.5 L 368.5 137.0 L 368.0 136.5 L 367.5 136.0 L 367.0 135.5 L 366.5 135.0 L 366.0 134.5 L 365.5 134.0 L 365.0 133.5 L 364.5 133.0 L 364.0 132.5 L 363.5 132.0 L 363.0 131.5 L 362.5 131.0 L 362.0 130.5 L 361.5 130.0 L 361.0 129.5 L 360.5 129.0 L 360.0 128.5 L 359.0 128.5 L 358.5 128.0 L 358.0 127.5 L 357.0 127.5 L 356.5 127.0 L 356.0 126.5 L 355.5 126.0 L 355.0 125.5 L 354.0 125.5 L 353.5 125.0 L 353.0 124.5 L 352.0 124.5 L 351.5 124.0 L 351.0 123.5 L 350.0 123.5 L 349.5 123.0 L 349.0 122.5 L 348.0 122.5 L 347.5 122.0 L 347.0 121.5 L 346.0 121.5 L 345.0 121.5 L 344.5 121.0 L 344.0 120.5 L 343.0 120.5 L 342.0 120.5 L 341.5 120.0 L 341.0 119.5 L 340.0 119.5 L 339.0 119.5 L 338.0 119.5 L 337.5 119.0 L 337.0 118.5 L 336.0 118.5 L 335.0 118.5 L 334.0 118.5 L 333.0 118.5 L 332.0 118.5 L 331.0 118.5 L 330.5 118.0 L 330.0 117.5 L 329.0 117.5 L 328.0 117.5 L 327.0 117.5 L 326.0 117.5 L 325.0 117.5 L 324.0 117.5 L 323.0 117.5 L 322.0 117.5 L 321.0 117.5 L 320.0 117.5 Z M 548.0 117.5 L 547.5 118.0 L 547.0 118.5 L 546.0 118.5 L 545.0 118.5 L 544.0 118.5 L 543.0 118.5 L 542.0 118.5 L 541.5 119.0 L 541.0 119.5 L 540.0 119.5 L 539.0 119.5 L 538.0 119.5 L 537.5 120.0 L 537.0 120.5 L 536.0 120.5 L 535.0 120.5 L 534.5 121.0 L 534.0 121.5 L 533.0 121.5 L 532.0 121.5 L 531.5 122.0 L 531.0 122.5 L 530.0 122.5 L 529.5 123.0 L 529.0 123.5 L 528.0 123.5 L 527.5 124.0 L 527.0 124.5 L 526.0 124.5 L 525.5 125.0 L 525.0 125.5 L 524.0 125.5 L 523.5 126.0 L 523.0 126.5 L 522.0 126.5 L 521.5 127.0 L 521.0 127.5 L 520.5 128.0 L 520.0 128.5 L 519.0 128.5 L 518.5 129.0 L 518.0 129.5 L 517.5 130.0 L 517.0 130.5 L 516.5 131.0 L 516.0 131.5 L 515.0 131.5 L 514.5 132.0 L 514.0 132.5 L 513.5 133.0 L 513.0 133.5 L 512.5 134.0 L 512.0 134.5 L 511.5 135.0 L 511.0 135.5 L 510.5 136.0 L 510.0 136.5 L 509.5 137.0 L 509.0 137.5 L 508.5 138.0 L 508.0 138.5 L 507.5 139.0 L 507.0 139.5 L 506.5 140.0 L 506.0 140.5 L 505.5 141.0 L 505.5 142.0 L 505.0 142.5 L 504.5 143.0 L 504.0 143.5 L 503.5 144.0 L 503.0 144.5 L 502.5 145.0 L 502.5 146.0 L 502.0 146.5 L 501.5 147.0 L 501.5 148.0 L 501.0 148.5 L 500.5 149.0 L 500.0 149.5 L 499.5 150.0 L 499.5 151.0 L 499.0 151.5 L 498.5 152.0 L 498.5 153.0 L 498.5 154.0 L 498.0 154.5 L 497.5 155.0 L 497.5 156.0 L 497.0 156.5 L 496.5 157.0 L 496.5 158.0 L 496.5 159.0 L 496.0 159.5 L 495.5 160.0 L 495.5 161.0 L 495.5 162.0 L 495.0 162.5 L 494.5 163.0 L 494.5 164.0 L 494.5 165.0 L 494.5 166.0 L 494.0 166.5 L 493.5 167.0 L 493.5 168.0 L 493.5 169.0 L 493.5 170.0 L 493.5 171.0 L 493.5 172.0 L 493.5 173.0 L 493.0 173.5 L 492.5 174.0 L 492.5 175.0 L 492.5 176.0 L 492.5 177.0 L 492.5 178.0 L 492.5 179.0 L 492.5 180.0 L 492.5 181.0 L 492.5 182.0 L 492.5 183.0 L 493.0 183.5 L 493.5 184.0 L 493.5 185.0 L 493.5 186.0 L 493.5 187.0 L 493.5 188.0 L 493.5 189.0 L 493.5 190.0 L 494.0 190.5 L 494.5 191.0 L 494.5 192.0 L 494.5 193.0 L 494.5 194.0 L 495.0 194.5 L 495.5 195.0 L 495.5 196.0 L 495.5 197.0 L 496.0 197.5 L 496.5 198.0 L 496.5 199.0 L 496.5 200.0 L 497.0 200.5 L 497.5 201.0 L 497.5 202.0 L 498.0 202.5 L 498.5 203.0 L 498.5 204.0 L 498.5 205.0 L 499.0 205.5 L 499.5 206.0 L 499.5 207.0 L 500.0 207.5 L 500.5 208.0 L 501.0 208.5 L 501.5 209.0 L 501.5 210.0 L 502.0 210.5 L 502.5 211.0 L 502.5 212.0 L 503.0 212.5 L 503.5 213.0 L 504.0 213.5 L 504.5 214.0 L 505.0 214.5 L 505.5 215.0 L 505.5 216.0 L 506.0 216.5 L 506.5 217.0 L 507.0 217.5 L 507.5 218.0 L 508.0 218.5 L 508.5 219.0 L 509.0 219.5 L 509.5 220.0 L 510.0 220.5 L 510.5 221.0 L 511.0 221.5 L 511.5 222.0 L 512.0 222.5 L 512.5 223.0 L 513.0 223.5 L 513.5 224.0 L 514.0 224.5 L 514.5 225.0 L 515.0 225.5 L 515.5 226.0 L 516.0 226.5 L 517.0 226.5 L 517.5 227.0 L 518.0 227.5 L 518.5 228.0 L 519.0 228.5 L 519.5 229.0 L 520.0 229.5 L 521.0 229.5 L 521.5 230.0 L 522.0 230.5 L 523.0 230.5 L 523.5 231.0 L 524.0 231.5 L 524.5 232.0 L 525.0 232.5 L 526.0 232.5 L 526.5 233.0 L 527.0 233.5 L 528.0 233.5 L 528.5 234.0 L 529.0 234.5 L 530.0 234.5 L 531.0 234.5 L 531.5 235.0 L 532.0 235.5 L 533.0 235.5 L 533.5 236.0 L 534.0 236.5 L 535.0 236.5 L 536.0 236.5 L 537.0 236.5 L 537.5 237.0 L 538.0 237.5 L 539.0 237.5 L 540.0 237.5 L 541.0 237.5 L 541.5 238.0 L 542.0 238.5 L 543.0 238.5 L 544.0 238.5 L 545.0 238.5 L 546.0 238.5 L 547.0 238.5 L 548.0 238.5 L 548.5 239.0 L 549.0 239.5 L 550.0 239.5 L 551.0 239.5 L 552.0 239.5 L 553.0 239.5 L 554.0 239.5 L 555.0 239.5 L 556.0 239.5 L 557.0 239.5 L 558.0 239.5 L 558.5 239.0 L 559.0 238.5 L 560.0 238.5 L 561.0 238.5 L 562.0 238.5 L 563.0 238.5 L 564.0 238.5 L 565.0 238.5 L 565.5 238.0 L 566.0 237.5 L 567.0 237.5 L 568.0 237.5 L 569.0 237.5 L 569.5 237.0 L 570.0 236.5 L 571.0 236.5 L 572.0 236.5 L 572.5 236.0 L 573.0 235.5 L 574.0 235.5 L 575.0 235.5 L 575.5 235.0 L 576.0 234.5 L 577.0 234.5 L 577.5 234.0 L 578.0 233.5 L 579.0 233.5 L 580.0 233.5 L 580.5 233.0 L 581.0 232.5 L 581.5 232.0 L 582.0 231.5 L 583.0 231.5 L 583.5 231.0 L 584.0 230.5 L 585.0 230.5 L 585.5 230.0 L 586.0 229.5 L 586.5 229.0 L 587.0 228.5 L 588.0 228.5 L 588.5 228.0 L 589.0 227.5 L 589.5 227.0 L 590.0 226.5 L 591.0 226.5 L 591.5 226.0 L 592.0 225.5 L 592.5 225.0 L 593.0 224.5 L 593.5 224.0 L 594.0 223.5 L 594.5 223.0 L 595.0 222.5 L 595.5 222.0 L 596.0 221.5 L 596.5 221.0 L 597.0 220.5 L 597.5 220.0 L 598.0 219.5 L 598.5 219.0 L 599.0 218.5 L 599.5 218.0 L 600.0 217.5 L 600.5 217.0 L 601.0 216.5 L 601.5 216.0 L 601.5 215.0 L 602.0 214.5 L 602.5 214.0 L 603.0 213.5 L 603.5 213.0 L 603.5 212.0 L 604.0 211.5 L 604.5 211.0 L 605.0 210.5 L 605.5 210.0 L 605.5 209.0 L 606.0 208.5 L 606.5 208.0 L 606.5 207.0 L 607.0 206.5 L 607.5 206.0 L 607.5 205.0 L 608.0 204.5 L 608.5 204.0 L 608.5 203.0 L 609.0 202.5 L 609.5 202.0 L 609.5 201.0 L 609.5 200.0 L 610.0 199.5 L 610.5 199.0 L 610.5 198.0 L 611.0 197.5 L 611.5 197.0 L 611.5 196.0 L 611.5 195.0 L 611.5 194.0 L 612.0 193.5 L 612.5 193.0 L 612.5 192.0 L 612.5 191.0 L 612.5 190.0 L 613.0 189.5 L 613.5 189.0 L 613.5 188.0 L 613.5 187.0 L 613.5 186.0 L 613.5 185.0 L 613.5 184.0 L 613.5 183.0 L 613.5 182.0 L 613.5 181.0 L 613.5 180.0 L 613.5 179.0 L 613.5 178.0 L 613.5 177.0 L 613.5 176.0 L 613.5 175.0 L 613.5 174.0 L 613.5 173.0 L 613.5 172.0 L 613.5 171.0 L 613.5 170.0 L 613.5 169.0 L 613.5 168.0 L 613.0 167.5 L 612.5 167.0 L 612.5 166.0 L 612.5 165.0 L 612.5 164.0 L 612.0 163.5 L 611.5 163.0 L 611.5 162.0 L 611.5 161.0 L 611.5 160.0 L 611.0 159.5 L 610.5 159.0 L 610.5 158.0 L 610.5 157.0 L 610.0 156.5 L 609.5 156.0 L 609.5 155.0 L 609.0 154.5 L 608.5 154.0 L 608.5 153.0 L 608.0 152.5 L 607.5 152.0 L 607.5 151.0 L 607.0 150.5 L 606.5 150.0 L 606.5 149.0 L 606.0 148.5 L 605.5 148.0 L 605.5 147.0 L 605.0 146.5 L 604.5 146.0 L 604.5 145.0 L 604.0 144.5 L 603.5 144.0 L 603.0 143.5 L 602.5 143.0 L 602.0 142.5 L 601.5 142.0 L 601.5 141.0 L 601.0 140.5 L 600.5 140.0 L 600.0 139.5 L 599.5 139.0 L 599.0 138.5 L 598.5 138.0 L 598.0 137.5 L 597.5 137.0 L 597.0 136.5 L 596.5 136.0 L 596.0 135.5 L 595.5 135.0 L 595.0 134.5 L 594.5 134.0 L 594.0 133.5 L 593.5 133.0 L 593.0 132.5 L 592.5 132.0 L 592.0 131.5 L 591.5 131.0 L 591.0 130.5 L 590.5 130.0 L 590.0 129.5 L 589.0 129.5 L 588.5 129.0 L 588.0 128.5 L 587.5 128.0 L 587.0 127.5 L 586.0 127.5 L 585.5 127.0 L 585.0 126.5 L 584.5 126.0 L 584.0 125.5 L 583.0 125.5 L 582.5 125.0 L 582.0 124.5 L 581.0 124.5 L 580.5 124.0 L 580.0 123.5 L 579.0 123.5 L 578.5 123.0 L 578.0 122.5 L 577.0 122.5 L 576.0 122.5 L 575.5 122.0 L 575.0 121.5 L 574.0 121.5 L 573.5 121.0 L 573.0 120.5 L 572.0 120.5 L 571.0 120.5 L 570.5 120.0 L 570.0 119.5 L 569.0 119.5 L 568.0 119.5 L 567.0 119.5 L 566.5 119.0 L 566.0 118.5 L 565.0 118.5 L 564.0 118.5 L 563.0 118.5 L 562.0 118.5 L 561.0 118.5 L 560.0 118.5 L 559.0 118.5 L 558.5 118.0 L 558.0 117.5 L 557.0 117.5 L 556.0 117.5 L 555.0 117.5 L 554.0 117.5 L 553.0 117.5 L 552.0 117.5 L 551.0 117.5 L 550.0 117.5 L 549.0 117.5 L 548.0 117.5 Z M 783.0 117.5 L 782.5 118.0 L 782.0 118.5 L 781.0 118.5 L 780.0 118.5 L 779.0 118.5 L 778.0 118.5 L 777.0 118.5 L 776.0 118.5 L 775.0 118.5 L 774.0 118.5 L 773.0 118.5 L 772.0 118.5 L 771.5 119.0 L 771.0 119.5 L 770.0 119.5 L 769.0 119.5 L 768.0 119.5 L 767.0 119.5 L 766.5 120.0 L 766.0 120.5 L 765.0 120.5 L 764.0 120.5 L 763.5 121.0 L 763.0 121.5 L 762.0 121.5 L 761.0 121.5 L 760.5 122.0 L 760.0 122.5 L 759.0 122.5 L 758.5 123.0 L 758.0 123.5 L 757.0 123.5 L 756.5 124.0 L 756.0 124.5 L 755.0 124.5 L 754.5 125.0 L 754.0 125.5 L 753.0 125.5 L 752.5 126.0 L 752.0 126.5 L 751.0 126.5 L 750.5 127.0 L 750.0 127.5 L 749.0 127.5 L 748.5 128.0 L 748.0 128.5 L 747.5 129.0 L 747.0 129.5 L 746.5 130.0 L 746.0 130.5 L 745.0 130.5 L 744.5 131.0 L 744.0 131.5 L 743.5 132.0 L 743.0 132.5 L 742.5 133.0 L 742.0 133.5 L 741.5 134.0 L 741.0 134.5 L 740.5 135.0 L 740.0 135.5 L 739.5 136.0 L 739.0 136.5 L 738.5 137.0 L 738.0 137.5 L 737.5 138.0 L 737.0 138.5 L 736.5 139.0 L 736.0 139.5 L 735.5 140.0 L 735.0 140.5 L 734.5 141.0 L 734.0 141.5 L 733.5 142.0 L 733.0 142.5 L 732.5 143.0 L 732.5 144.0 L 732.0 144.5 L 731.5 145.0 L 731.0 145.5 L 730.5 146.0 L 730.5 147.0 L 730.0 147.5 L 729.5 148.0 L 729.5 149.0 L 729.0 149.5 L 728.5 150.0 L 728.0 150.5 L 727.5 151.0 L 727.5 152.0 L 727.0 152.5 L 726.5 153.0 L 726.5 154.0 L 726.5 155.0 L 726.0 155.5 L 725.5 156.0 L 725.5 157.0 L 725.0 157.5 L 724.5 158.0 L 724.5 159.0 L 724.5 160.0 L 724.0 160.5 L 723.5 161.0 L 723.5 162.0 L 723.5 163.0 L 723.5 164.0 L 723.0 164.5 L 722.5 165.0 L 722.5 166.0 L 722.5 167.0 L 722.5 168.0 L 722.5 169.0 L 722.0 169.5 L 721.5 170.0 L 721.5 171.0 L 721.5 172.0 L 721.5 173.0 L 721.5 174.0 L 721.5 175.0 L 721.5 176.0 L 721.5 177.0 L 721.5 178.0 L 721.5 179.0 L 721.5 180.0 L 721.5 181.0 L 721.5 182.0 L 721.5 183.0 L 721.5 184.0 L 721.5 185.0 L 721.5 186.0 L 722.0 186.5 L 722.5 187.0 L 722.5 188.0 L 722.5 189.0 L 722.5 190.0 L 722.5 191.0 L 722.5 192.0 L 723.0 192.5 L 723.5 193.0 L 723.5 194.0 L 723.5 195.0 L 723.5 196.0 L 724.0 196.5 L 724.5 197.0 L 724.5 198.0 L 724.5 199.0 L 725.0 199.5 L 725.5 200.0 L 725.5 201.0 L 725.5 202.0 L 726.0 202.5 L 726.5 203.0 L 726.5 204.0 L 727.0 204.5 L 727.5 205.0 L 727.5 206.0 L 728.0 206.5 L 728.5 207.0 L 728.5 208.0 L 729.0 208.5 L 729.5 209.0 L 730.0 209.5 L 730.5 210.0 L 730.5 211.0 L 731.0 211.5 L 731.5 212.0 L 732.0 212.5 L 732.5 213.0 L 732.5 214.0 L 733.0 214.5 L 733.5 215.0 L 734.0 215.5 L 734.5 216.0 L 735.0 216.5 L 735.5 217.0 L 735.5 218.0 L 736.0 218.5 L 736.5 219.0 L 737.0 219.5 L 737.5 220.0 L 738.0 220.5 L 738.5 221.0 L 739.0 221.5 L 739.5 222.0 L 740.0 222.5 L 740.5 223.0 L 741.0 223.5 L 741.5 224.0 L 742.0 224.5 L 742.5 225.0 L 743.0 225.5 L 744.0 225.5 L 744.5 226.0 L 745.0 226.5 L 745.5 227.0 L 746.0 227.5 L 746.5 228.0 L 747.0 228.5 L 748.0 228.5 L 748.5 229.0 L 749.0 229.5 L 750.0 229.5 L 750.5 230.0 L 751.0 230.5 L 751.5 231.0 L 752.0 231.5 L 753.0 231.5 L 753.5 232.0 L 754.0 232.5 L 755.0 232.5 L 755.5 233.0 L 756.0 233.5 L 757.0 233.5 L 757.5 234.0 L 758.0 234.5 L 759.0 234.5 L 760.0 234.5 L 760.5 235.0 L 761.0 235.5 L 762.0 235.5 L 762.5 236.0 L 763.0 236.5 L 764.0 236.5 L 765.0 236.5 L 766.0 236.5 L 766.5 237.0 L 767.0 237.5 L 768.0 237.5 L 769.0 237.5 L 770.0 237.5 L 771.0 237.5 L 771.5 238.0 L 772.0 238.5 L 773.0 238.5 L 774.0 238.5 L 775.0 238.5 L 776.0 238.5 L 777.0 238.5 L 778.0 238.5 L 779.0 238.5 L 780.0 238.5 L 780.5 239.0 L 781.0 239.5 L 782.0 239.5 L 783.0 239.5 L 783.5 239.0 L 784.0 238.5 L 785.0 238.5 L 786.0 238.5 L 787.0 238.5 L 788.0 238.5 L 789.0 238.5 L 790.0 238.5 L 791.0 238.5 L 792.0 238.5 L 792.5 238.0 L 793.0 237.5 L 794.0 237.5 L 795.0 237.5 L 796.0 237.5 L 797.0 237.5 L 797.5 237.0 L 798.0 236.5 L 799.0 236.5 L 800.0 236.5 L 800.5 236.0 L 801.0 235.5 L 802.0 235.5 L 803.0 235.5 L 803.5 235.0 L 804.0 234.5 L 805.0 234.5 L 806.0 234.5 L 806.5 234.0 L 807.0 233.5 L 808.0 233.5 L 808.5 233.0 L 809.0 232.5 L 810.0 232.5 L 810.5 232.0 L 811.0 231.5 L 812.0 231.5 L 812.5 231.0 L 813.0 230.5 L 813.5 230.0 L 814.0 229.5 L 815.0 229.5 L 815.5 229.0 L 816.0 228.5 L 816.5 228.0 L 817.0 227.5 L 818.0 227.5 L 818.5 227.0 L 819.0 226.5 L 819.5 226.0 L 820.0 225.5 L 820.5 225.0 L 821.0 224.5 L 821.5 224.0 L 822.0 223.5 L 823.0 223.5 L 823.5 223.0 L 824.0 222.5 L 824.5 222.0 L 825.0 221.5 L 825.5 221.0 L 826.0 220.5 L 826.5 220.0 L 826.5 219.0 L 827.0 218.5 L 827.5 218.0 L 828.0 217.5 L 828.5 217.0 L 829.0 216.5 L 829.5 216.0 L 830.0 215.5 L 830.5 215.0 L 830.5 214.0 L 831.0 213.5 L 831.5 213.0 L 832.0 212.5 L 832.5 212.0 L 832.5 211.0 L 833.0 210.5 L 833.5 210.0 L 834.0 209.5 L 834.5 209.0 L 834.5 208.0 L 835.0 207.5 L 835.5 207.0 L 835.5 206.0 L 836.0 205.5 L 836.5 205.0 L 836.5 204.0 L 837.0 203.5 L 837.5 203.0 L 837.5 202.0 L 838.0 201.5 L 838.5 201.0 L 838.5 200.0 L 838.5 199.0 L 839.0 198.5 L 839.5 198.0 L 839.5 197.0 L 839.5 196.0 L 840.0 195.5 L 840.5 195.0 L 840.5 194.0 L 840.5 193.0 L 841.0 192.5 L 841.5 192.0 L 841.5 191.0 L 841.5 190.0 L 841.5 189.0 L 841.5 188.0 L 841.5 187.0 L 842.0 186.5 L 842.5 186.0 L 842.5 185.0 L 842.5 184.0 L 842.5 183.0 L 842.5 182.0 L 842.5 181.0 L 842.5 180.0 L 842.5 179.0 L 842.5 178.0 L 842.5 177.0 L 842.5 176.0 L 842.5 175.0 L 842.5 174.0 L 842.5 173.0 L 842.5 172.0 L 842.5 171.0 L 842.5 170.0 L 842.0 169.5 L 841.5 169.0 L 841.5 168.0 L 841.5 167.0 L 841.5 166.0 L 841.5 165.0 L 841.0 164.5 L 840.5 164.0 L 840.5 163.0 L 840.5 162.0 L 840.5 161.0 L 840.0 160.5 L 839.5 160.0 L 839.5 159.0 L 839.5 158.0 L 839.0 157.5 L 838.5 157.0 L 838.5 156.0 L 838.0 155.5 L 837.5 155.0 L 837.5 154.0 L 837.5 153.0 L 837.0 152.5 L 836.5 152.0 L 836.5 151.0 L 836.0 150.5 L 835.5 150.0 L 835.5 149.0 L 835.0 148.5 L 834.5 148.0 L 834.0 147.5 L 833.5 147.0 L 833.5 146.0 L 833.0 145.5 L 832.5 145.0 L 832.5 144.0 L 832.0 143.5 L 831.5 143.0 L 831.0 142.5 L 830.5 142.0 L 830.0 141.5 L 829.5 141.0 L 829.5 140.0 L 829.0 139.5 L 828.5 139.0 L 828.0 138.5 L 827.5 138.0 L 827.0 137.5 L 826.5 137.0 L 826.0 136.5 L 825.5 136.0 L 825.0 135.5 L 824.5 135.0 L 824.0 134.5 L 823.5 134.0 L 823.0 133.5 L 822.5 133.0 L 822.0 132.5 L 821.5 132.0 L 821.0 131.5 L 820.0 131.5 L 819.5 131.0 L 819.0 130.5 L 818.5 130.0 L 818.0 129.5 L 817.5 129.0 L 817.0 128.5 L 816.0 128.5 L 815.5 128.0 L 815.0 127.5 L 814.5 127.0 L 814.0 126.5 L 813.0 126.5 L 812.5 126.0 L 812.0 125.5 L 811.0 125.5 L 810.5 125.0 L 810.0 124.5 L 809.5 124.0 L 809.0 123.5 L 808.0 123.5 L 807.0 123.5 L 806.5 123.0 L 806.0 122.5 L 805.0 122.5 L 804.5 122.0 L 804.0 121.5 L 803.0 121.5 L 802.0 121.5 L 801.5 121.0 L 801.0 120.5 L 800.0 120.5 L 799.0 120.5 L 798.5 120.0 L 798.0 119.5 L 797.0 119.5 L 796.0 119.5 L 795.0 119.5 L 794.5 119.0 L 794.0 118.5 L 793.0 118.5 L 792.0 118.5 L 791.0 118.5 L 790.0 118.5 L 789.0 118.5 L 788.0 118.5 L 787.0 118.5 L 786.0 118.5 L 785.5 118.0 L 785.0 117.5 L 784.0 117.5 L 783.0 117.5 Z"/>
  <path fill="#1F5BFF" fill-rule="evenodd" d="M 1034.0 215.5 L 1035.0 215.5 L 1036.0 215.5 L 1037.0 215.5 L 1038.0 215.5 L 1039.0 215.5 L 1040.0 215.5 L 1041.0 215.5 L 1042.0 215.5 L 1043.0 215.5 L 1044.0 215.5 L 1045.0 215.5 L 1046.0 215.5 L 1046.5 216.0 L 1047.0 216.5 L 1048.0 216.5 L 1049.0 216.5 L 1050.0 216.5 L 1050.5 217.0 L 1051.0 217.5 L 1052.0 217.5 L 1052.5 218.0 L 1053.0 218.5 L 1054.0 218.5 L 1054.5 219.0 L 1055.0 219.5 L 1056.0 219.5 L 1056.5 220.0 L 1057.0 220.5 L 1057.5 221.0 L 1058.0 221.5 L 1059.0 221.5 L 1059.5 222.0 L 1060.0 222.5 L 1060.5 223.0 L 1061.0 223.5 L 1061.5 224.0 L 1062.0 224.5 L 1062.5 225.0 L 1063.0 225.5 L 1063.5 226.0 L 1063.5 227.0 L 1064.0 227.5 L 1064.5 228.0 L 1065.0 228.5 L 1065.5 229.0 L 1066.0 229.5 L 1066.5 230.0 L 1066.5 231.0 L 1067.0 231.5 L 1067.5 232.0 L 1067.5 233.0 L 1067.5 234.0 L 1068.0 234.5 L 1068.5 235.0 L 1068.5 236.0 L 1068.5 237.0 L 1069.0 237.5 L 1069.5 238.0 L 1069.5 239.0 L 1069.5 240.0 L 1069.5 241.0 L 1069.5 242.0 L 1070.0 242.5 L 1070.5 243.0 L 1070.5 244.0 L 1070.5 245.0 L 1070.5 246.0 L 1070.5 247.0 L 1070.0 247.5 L 1069.5 248.0 L 1069.5 249.0 L 1069.5 250.0 L 1069.5 251.0 L 1069.5 252.0 L 1069.0 252.5 L 1068.5 253.0 L 1068.5 254.0 L 1068.5 255.0 L 1068.0 255.5 L 1067.5 256.0 L 1067.5 257.0 L 1067.5 258.0 L 1067.0 258.5 L 1066.5 259.0 L 1066.5 260.0 L 1066.0 260.5 L 1065.5 261.0 L 1065.0 261.5 L 1064.5 262.0 L 1064.5 263.0 L 1064.0 263.5 L 1063.5 264.0 L 1063.0 264.5 L 1062.5 265.0 L 1062.0 265.5 L 1061.5 266.0 L 1061.0 266.5 L 1060.5 267.0 L 1060.0 267.5 L 1059.5 268.0 L 1059.0 268.5 L 1058.5 269.0 L 1058.0 269.5 L 1057.5 270.0 L 1057.0 270.5 L 1056.0 270.5 L 1055.5 271.0 L 1055.0 271.5 L 1054.0 271.5 L 1053.5 272.0 L 1053.0 272.5 L 1052.5 273.0 L 1052.0 273.5 L 1051.0 273.5 L 1050.0 273.5 L 1049.5 274.0 L 1049.0 274.5 L 1048.0 274.5 L 1047.0 274.5 L 1046.5 275.0 L 1046.0 275.5 L 1045.0 275.5 L 1044.0 275.5 L 1043.0 275.5 L 1042.0 275.5 L 1041.0 275.5 L 1040.0 275.5 L 1039.0 275.5 L 1038.0 275.5 L 1037.0 275.5 L 1036.0 275.5 L 1035.0 275.5 L 1034.0 275.5 L 1033.0 275.5 L 1032.0 275.5 L 1031.0 275.5 L 1030.0 275.5 L 1029.0 275.5 L 1028.0 275.5 L 1027.0 275.5 L 1026.0 275.5 L 1025.0 275.5 L 1024.0 275.5 L 1023.0 275.5 L 1022.0 275.5 L 1021.0 275.5 L 1020.0 275.5 L 1019.0 275.5 L 1018.0 275.5 L 1017.0 275.5 L 1016.5 275.0 L 1016.0 274.5 L 1015.0 274.5 L 1014.0 274.5 L 1013.0 274.5 L 1012.0 274.5 L 1011.5 274.0 L 1011.0 273.5 L 1010.0 273.5 L 1009.0 273.5 L 1008.0 273.5 L 1007.5 273.0 L 1007.0 272.5 L 1006.0 272.5 L 1005.0 272.5 L 1004.5 272.0 L 1004.0 271.5 L 1003.0 271.5 L 1002.0 271.5 L 1001.5 271.0 L 1001.0 270.5 L 1000.0 270.5 L 999.5 270.0 L 999.0 269.5 L 998.0 269.5 L 997.5 269.0 L 997.0 268.5 L 996.0 268.5 L 995.5 268.0 L 995.0 267.5 L 994.0 267.5 L 993.5 267.0 L 993.0 266.5 L 992.5 266.0 L 992.0 265.5 L 991.0 265.5 L 990.5 265.0 L 990.0 264.5 L 989.0 264.5 L 988.5 264.0 L 988.0 263.5 L 987.5 263.0 L 987.0 262.5 L 986.5 262.0 L 986.0 261.5 L 985.0 261.5 L 984.5 261.0 L 984.0 260.5 L 983.5 260.0 L 983.0 259.5 L 982.5 259.0 L 982.0 258.5 L 981.5 258.0 L 981.0 257.5 L 980.5 257.0 L 980.0 256.5 L 979.5 256.0 L 979.0 255.5 L 978.5 255.0 L 978.0 254.5 L 977.5 254.0 L 977.0 253.5 L 976.5 253.0 L 976.0 252.5 L 975.5 252.0 L 975.0 251.5 L 974.5 251.0 L 974.0 250.5 L 973.5 250.0 L 973.0 249.5 L 972.5 249.0 L 972.0 248.5 L 971.5 248.0 L 971.0 247.5 L 970.5 247.0 L 970.5 246.0 L 970.0 245.5 L 969.5 245.0 L 969.0 244.5 L 968.5 244.0 L 968.5 243.0 L 968.0 242.5 L 967.5 242.0 L 967.0 241.5 L 966.5 241.0 L 966.5 240.0 L 966.0 239.5 L 965.5 239.0 L 965.5 238.0 L 965.0 237.5 L 964.5 237.0 L 964.5 236.0 L 964.0 235.5 L 963.5 235.0 L 963.0 234.5 L 962.5 234.0 L 962.5 233.0 L 962.5 232.0 L 962.0 231.5 L 961.5 231.0 L 961.5 230.0 L 961.0 229.5 L 960.5 229.0 L 960.5 228.0 L 960.5 227.0 L 961.0 226.5 L 961.5 227.0 L 962.0 227.5 L 962.5 228.0 L 962.5 229.0 L 963.0 229.5 L 963.5 230.0 L 964.0 230.5 L 964.5 231.0 L 965.0 231.5 L 965.5 232.0 L 966.0 232.5 L 966.5 233.0 L 967.0 233.5 L 967.5 234.0 L 968.0 234.5 L 968.5 235.0 L 969.0 235.5 L 970.0 235.5 L 970.5 236.0 L 971.0 236.5 L 972.0 236.5 L 972.5 237.0 L 973.0 237.5 L 973.5 238.0 L 974.0 238.5 L 975.0 238.5 L 976.0 238.5 L 976.5 239.0 L 977.0 239.5 L 978.0 239.5 L 979.0 239.5 L 979.5 240.0 L 980.0 240.5 L 981.0 240.5 L 982.0 240.5 L 982.5 241.0 L 983.0 241.5 L 984.0 241.5 L 985.0 241.5 L 986.0 241.5 L 987.0 241.5 L 988.0 241.5 L 989.0 241.5 L 990.0 241.5 L 991.0 241.5 L 992.0 241.5 L 993.0 241.5 L 994.0 241.5 L 994.5 241.0 L 995.0 240.5 L 996.0 240.5 L 997.0 240.5 L 998.0 240.5 L 999.0 240.5 L 999.5 240.0 L 1000.0 239.5 L 1001.0 239.5 L 1002.0 239.5 L 1002.5 239.0 L 1003.0 238.5 L 1004.0 238.5 L 1004.5 238.0 L 1005.0 237.5 L 1005.5 237.0 L 1006.0 236.5 L 1007.0 236.5 L 1007.5 236.0 L 1008.0 235.5 L 1008.5 235.0 L 1009.0 234.5 L 1009.5 234.0 L 1010.0 233.5 L 1011.0 233.5 L 1011.5 233.0 L 1011.5 232.0 L 1012.0 231.5 L 1012.5 231.0 L 1013.0 230.5 L 1013.5 230.0 L 1014.0 229.5 L 1014.5 229.0 L 1015.0 228.5 L 1015.5 228.0 L 1015.5 227.0 L 1016.0 226.5 L 1016.5 226.0 L 1017.0 225.5 L 1017.5 225.0 L 1018.0 224.5 L 1018.5 224.0 L 1019.0 223.5 L 1019.5 223.0 L 1020.0 222.5 L 1021.0 222.5 L 1021.5 222.0 L 1022.0 221.5 L 1022.5 221.0 L 1023.0 220.5 L 1023.5 220.0 L 1024.0 219.5 L 1025.0 219.5 L 1025.5 219.0 L 1026.0 218.5 L 1027.0 218.5 L 1027.5 218.0 L 1028.0 217.5 L 1029.0 217.5 L 1030.0 217.5 L 1030.5 217.0 L 1031.0 216.5 L 1032.0 216.5 L 1033.0 216.5 L 1033.5 216.0 L 1034.0 215.5 Z M 960.0 224.5 L 960.5 225.0 L 960.5 226.0 L 960.0 226.5 L 959.5 226.0 L 959.5 225.0 L 960.0 224.5 Z"/>
</svg>
